<svg id="Layer_1" data-name="Layer 1" xmlns="http://www.w3.org/2000/svg" viewBox="0 0 13.39 15.33"><defs><style>.cls-1{fill:#431d08;}.cls-2{fill:[a];}.cls-3{fill:#020d1a;}.cls-4{fill:[b];}.cls-5{fill:[c];}.cls-6{fill:#fff;}.cls-7{fill:#000001;}.cls-8{fill:[beak];}.cls-9{fill:#100d0f;}</style></defs><title>owl15</title><path class="cls-1" d="M90.65,72.06A0.91,0.91,0,0,1,90,71.79a0.91,0.91,0,0,1-.65.28,0.26,0.26,0,1,1,0-.52,0.4,0.4,0,0,0,.4-0.4,0.26,0.26,0,0,1,.52,0,0.4,0.4,0,0,0,.4.4A0.26,0.26,0,1,1,90.65,72.06Z" transform="translate(-81.33 -56.73)"/><path class="cls-1" d="M90,71.41a0.26,0.26,0,0,1-.26-0.26V64.88a0.26,0.26,0,1,1,.52,0v6.27A0.26,0.26,0,0,1,90,71.41Z" transform="translate(-81.33 -56.73)"/><path class="cls-1" d="M86.71,72.06a0.91,0.91,0,0,1-.66-0.28,0.9,0.9,0,0,1-.65.28,0.26,0.26,0,1,1,0-.52,0.4,0.4,0,0,0,.4-0.4,0.26,0.26,0,0,1,.52,0,0.4,0.4,0,0,0,.4.4A0.26,0.26,0,0,1,86.71,72.06Z" transform="translate(-81.33 -56.73)"/><path class="cls-1" d="M86.06,71.41a0.26,0.26,0,0,1-.26-0.26V64.88a0.26,0.26,0,1,1,.52,0v6.27A0.26,0.26,0,0,1,86.06,71.41Z" transform="translate(-81.33 -56.73)"/><path class="cls-2" d="M93.43,61.55c1.45-2.26.18-5.89-.45-4.52a3.63,3.63,0,0,1-3.07,2.13,4.43,4.43,0,0,0-3.77,0A3.63,3.63,0,0,1,83.08,57c-0.63-1.37-1.9,2.26-.45,4.52V66.4c0,2.63,2.42,4.75,5.4,4.75s5.4-2.13,5.4-4.75V61.55Z" transform="translate(-81.33 -56.73)"/><ellipse class="cls-3" cx="82.63" cy="59.64" rx="0.3" ry="1.48" transform="translate(-88.63 -45.03) rotate(-7.76)"/><ellipse class="cls-3" cx="93.43" cy="59.64" rx="1.48" ry="0.3" transform="matrix(0.14, -0.99, 0.99, 0.14, -59.61, 87.44)"/><path class="cls-4" d="M88,66.56a15.08,15.08,0,0,0-5.25.89,5.58,5.58,0,0,0,10.51,0A15.08,15.08,0,0,0,88,66.56Z" transform="translate(-81.33 -56.73)"/><path class="cls-5" d="M88,63A1.1,1.1,0,0,0,87.22,62a1.09,1.09,0,0,0-1.49-1.49,1.09,1.09,0,0,0-2.11,0A1.09,1.09,0,0,0,82.14,62a1.09,1.09,0,0,0,0,2.11,1.09,1.09,0,0,0,1.49,1.49,1.09,1.09,0,0,0,2.11,0,1.09,1.09,0,0,0,1.49-1.49A1.1,1.1,0,0,0,88,63Z" transform="translate(-81.33 -56.73)"/><circle class="cls-6" cx="3.35" cy="6.3" r="2.23"/><circle class="cls-7" cx="3.35" cy="6.3" r="1.12"/><circle class="cls-6" cx="3.35" cy="5.55" r="0.36"/><path class="cls-5" d="M94.73,63A1.1,1.1,0,0,0,93.92,62a1.09,1.09,0,0,0-1.49-1.49,1.09,1.09,0,0,0-2.11,0A1.09,1.09,0,0,0,88.84,62a1.09,1.09,0,0,0,0,2.11,1.09,1.09,0,0,0,1.49,1.49,1.09,1.09,0,0,0,2.11,0,1.09,1.09,0,0,0,1.49-1.49A1.1,1.1,0,0,0,94.73,63Z" transform="translate(-81.33 -56.73)"/><circle class="cls-6" cx="10.05" cy="6.3" r="2.23"/><circle class="cls-7" cx="10.05" cy="6.3" r="1.12"/><circle class="cls-6" cx="10.05" cy="5.55" r="0.36"/><rect class="cls-8" x="86.98" y="64" width="2.09" height="2.09" transform="translate(-101.54 24.57) rotate(-45)"/><polygon class="cls-9" points="7.68 8.44 6.7 9.43 5.71 8.44 6.7 8.93 7.68 8.44"/><path class="cls-5" d="M82.61,65.84s2.08,1.59,1,5A4.53,4.53,0,0,1,82.61,65.84Z" transform="translate(-81.33 -56.73)"/><path class="cls-5" d="M93.44,65.65s-2.08,1.59-1,5A4.54,4.54,0,0,0,93.44,65.65Z" transform="translate(-81.33 -56.73)"/></svg>
