<svg id="Layer_1" data-name="Layer 1" xmlns="http://www.w3.org/2000/svg" viewBox="0 0 13.48 14.94"><defs><style>.cls-1{fill:[c];}.cls-2{fill:#431d08;}.cls-3{fill:[a];}.cls-4{fill:[beak];}.cls-5{fill:[b];}.cls-6{fill:#fff;}.cls-7{fill:#000001;}</style></defs><title>owl10</title><path class="cls-1" d="M90.48,44.49a1.15,1.15,0,0,0-.39-0.85,1.14,1.14,0,0,0-1.21-1.21,1.14,1.14,0,0,0-1.71,0A1.14,1.14,0,0,0,86,43.64a1.14,1.14,0,0,0,0,1.71,1.14,1.14,0,0,0,1.21,1.21,1.14,1.14,0,0,0,1.71,0,1.15,1.15,0,0,0,.88-0.33,1.17,1.17,0,0,0,.33-0.88A1.16,1.16,0,0,0,90.48,44.49Z" transform="translate(-81.29 -32.5)"/><path class="cls-2" d="M90.66,47.44A0.91,0.91,0,0,1,90,47.16a0.91,0.91,0,0,1-.66.28,0.26,0.26,0,0,1,0-.52,0.4,0.4,0,0,0,.4-0.4,0.26,0.26,0,0,1,.52,0,0.4,0.4,0,0,0,.4.4A0.26,0.26,0,0,1,90.66,47.44Z" transform="translate(-81.29 -32.5)"/><path class="cls-2" d="M90,46.78a0.26,0.26,0,0,1-.26-0.26V40.25a0.26,0.26,0,1,1,.52,0v6.27A0.26,0.26,0,0,1,90,46.78Z" transform="translate(-81.29 -32.5)"/><path class="cls-2" d="M86.71,47.44a0.91,0.91,0,0,1-.66-0.28,0.9,0.9,0,0,1-.65.28,0.26,0.26,0,1,1,0-.52,0.4,0.4,0,0,0,.4-0.4,0.26,0.26,0,0,1,.52,0,0.4,0.4,0,0,0,.4.4A0.26,0.26,0,0,1,86.71,47.44Z" transform="translate(-81.29 -32.5)"/><path class="cls-2" d="M86.06,46.78a0.26,0.26,0,0,1-.26-0.26V40.25a0.26,0.26,0,1,1,.52,0v6.27A0.26,0.26,0,0,1,86.06,46.78Z" transform="translate(-81.29 -32.5)"/><path class="cls-1" d="M85.05,33.8a4.08,4.08,0,0,1-1.72-.21A7.74,7.74,0,0,1,82,32.82c-0.5-.26-1,0.19-0.43.76C82.89,35,83,37,83.34,37.79S85.05,33.8,85.05,33.8Z" transform="translate(-81.29 -32.5)"/><path class="cls-1" d="M91,33.8a4.08,4.08,0,0,0,1.72-.21,7.74,7.74,0,0,0,1.38-.76c0.5-.26,1,0.19.43,0.76C93.16,35,93,37,92.72,37.79S91,33.8,91,33.8Z" transform="translate(-81.29 -32.5)"/><ellipse class="cls-3" cx="6.74" cy="6.97" rx="5.2" ry="6.19"/><rect class="cls-4" x="87.26" y="37.74" width="1.55" height="1.55" transform="translate(-82.77 40.95) rotate(-44.95)"/><path class="cls-5" d="M88,35.85a1.1,1.1,0,0,0-.81-1.05,1.09,1.09,0,0,0-1.49-1.49,1.09,1.09,0,0,0-2.11,0,1.09,1.09,0,0,0-1.49,1.49,1.09,1.09,0,0,0,0,2.11,1.09,1.09,0,0,0,1.49,1.49,1.09,1.09,0,0,0,2.11,0,1.09,1.09,0,0,0,1.49-1.49A1.1,1.1,0,0,0,88,35.85Z" transform="translate(-81.29 -32.5)"/><circle class="cls-6" cx="3.39" cy="3.35" r="2.23"/><circle class="cls-7" cx="3.39" cy="3.35" r="1.12"/><circle class="cls-6" cx="3.39" cy="2.59" r="0.37"/><path class="cls-5" d="M94.73,35.85a1.1,1.1,0,0,0-.81-1.05,1.09,1.09,0,0,0-1.49-1.49,1.09,1.09,0,0,0-2.11,0,1.09,1.09,0,0,0-1.49,1.49,1.09,1.09,0,0,0,0,2.11,1.09,1.09,0,0,0,1.49,1.49,1.09,1.09,0,0,0,2.11,0,1.09,1.09,0,0,0,1.49-1.49A1.1,1.1,0,0,0,94.73,35.85Z" transform="translate(-81.29 -32.5)"/><circle class="cls-6" cx="10.09" cy="3.35" r="2.23"/><circle class="cls-7" cx="10.09" cy="3.35" r="1.12"/><circle class="cls-6" cx="10.09" cy="2.59" r="0.37"/><path class="cls-5" d="M91.19,44.3A7.43,7.43,0,0,0,94,40.36c0.66-2.15-1.31-1.37-2-.35A7.11,7.11,0,0,0,91.19,44.3Z" transform="translate(-81.29 -32.5)"/><path class="cls-5" d="M84.87,44.3A7.44,7.44,0,0,1,82,40.36C81.36,38.21,83.33,39,84,40A7.11,7.11,0,0,1,84.87,44.3Z" transform="translate(-81.29 -32.5)"/></svg>
