<svg id="Layer_1" data-name="Layer 1" xmlns="http://www.w3.org/2000/svg" viewBox="0 0 17.21 14.25"><defs><style>.cls-1{fill:#101018;}.cls-2{fill:[a];}.cls-3{fill:[b];}.cls-4{fill:#fff;}.cls-5{fill:#121012;}.cls-6{fill:[beak];}.cls-7{fill:[c];}</style></defs><title>owl1</title><path class="cls-1" d="M1002.91,187.14a0.92,0.92,0,0,0-1.31,0,0.26,0.26,0,1,1,0-.52,0.4,0.4,0,0,0,.4-0.4,0.26,0.26,0,0,1,.52,0,0.4,0.4,0,0,0,.4.4A0.26,0.26,0,0,1,1002.91,187.14Z" transform="translate(-991.68 -172.89)"/><path class="cls-1" d="M1002.26,186.48a0.26,0.26,0,0,1-.26-0.26V180a0.26,0.26,0,1,1,.52,0v6.27A0.26,0.26,0,0,1,1002.26,186.48Z" transform="translate(-991.68 -172.89)"/><path class="cls-1" d="M999,187.14a0.92,0.92,0,0,0-1.31,0,0.26,0.26,0,1,1,0-.52,0.4,0.4,0,0,0,.4-0.4,0.26,0.26,0,0,1,.52,0,0.4,0.4,0,0,0,.4.4A0.26,0.26,0,0,1,999,187.14Z" transform="translate(-991.68 -172.89)"/><path class="cls-1" d="M998.32,186.48a0.26,0.26,0,0,1-.26-0.26V180a0.26,0.26,0,1,1,.52,0v6.27A0.26,0.26,0,0,1,998.32,186.48Z" transform="translate(-991.68 -172.89)"/><path class="cls-2" d="M1007,181.59c0,3.7-3,4.69-6.7,4.69s-6.69-1-6.69-4.69,1.12-8.7,6.69-8.7S1007,177.89,1007,181.59Z" transform="translate(-991.68 -172.89)"/><path class="cls-3" d="M1005.52,179a3.14,3.14,0,0,1-3.14,3.14H998.2a3.14,3.14,0,0,1-3.14-3.14h0a3.14,3.14,0,0,1,3.14-3.14h4.19a3.14,3.14,0,0,1,3.14,3.14h0Z" transform="translate(-991.68 -172.89)"/><circle class="cls-4" cx="6.63" cy="6.13" r="2.27"/><circle class="cls-4" cx="10.59" cy="6.13" r="2.27"/><circle class="cls-5" cx="6.63" cy="6.13" r="0.9"/><circle class="cls-4" cx="6.63" cy="5.63" r="0.22"/><circle class="cls-5" cx="10.7" cy="6.13" r="0.9"/><circle class="cls-4" cx="10.7" cy="5.63" r="0.22"/><rect class="cls-6" x="999.51" y="180.37" width="1.56" height="1.56" transform="translate(-826.8 587.48) rotate(-45)"/><path class="cls-7" d="M996.26,180.59c0.67,1.6.17,4.42-.48,4.7s-3-1.33-3.7-2.93-0.57-3.17.87-3.78S995.58,179,996.26,180.59Z" transform="translate(-991.68 -172.89)"/><path class="cls-7" d="M1004.32,180.59c-0.68,1.6-.17,4.42.48,4.7s3-1.33,3.7-2.93,0.57-3.17-.87-3.78S1005,179,1004.32,180.59Z" transform="translate(-991.68 -172.89)"/><path class="cls-7" d="M997.92,178.42a3.43,3.43,0,0,0,2.33-.62,4.21,4.21,0,0,0-1-1,10,10,0,0,0-5-1.52s-1-1-1-1C994.51,176.68,996.45,178.33,997.92,178.42Z" transform="translate(-991.68 -172.89)"/><path class="cls-7" d="M1002.66,178.42a3.43,3.43,0,0,1-2.33-.62,4.21,4.21,0,0,1,1-1,10,10,0,0,1,5-1.52s1-1,1-1C1006.06,176.68,1004.12,178.33,1002.66,178.42Z" transform="translate(-991.68 -172.89)"/></svg>
