<svg id="Layer_1" data-name="Layer 1" xmlns="http://www.w3.org/2000/svg" viewBox="0 0 19.21 16.71"><defs><style>.cls-1{fill:[b];}.cls-2{fill:#431d08;}.cls-3{fill:[a];}.cls-4{fill:[c];}.cls-5{fill:#fff;}.cls-6{fill:#000001;}.cls-7{fill:[beak];}</style></defs><title>owl14</title><path class="cls-1" d="M66.53,65.63A24.62,24.62,0,0,0,60.8,60.4c-2.31-1.33-.26.91,0.7,1.83-0.84,0-2.69,1.72.36,2.54C61.55,65,61.13,67.7,66.53,65.63Z" transform="translate(-59.74 -55.35)"/><path class="cls-1" d="M72.16,65.63a24.65,24.65,0,0,1,5.73-5.23c2.31-1.33.26,0.91-.7,1.83,0.84,0,2.69,1.72-.35,2.54C77.14,65,77.56,67.7,72.16,65.63Z" transform="translate(-59.74 -55.35)"/><path class="cls-2" d="M72,72.06a0.91,0.91,0,0,1-.66-0.28,0.91,0.91,0,0,1-.66.28,0.26,0.26,0,0,1,0-.52,0.4,0.4,0,0,0,.4-0.4,0.26,0.26,0,0,1,.52,0,0.4,0.4,0,0,0,.4.4A0.26,0.26,0,0,1,72,72.06Z" transform="translate(-59.74 -55.35)"/><path class="cls-2" d="M71.31,71.41a0.26,0.26,0,0,1-.26-0.26V64.88a0.26,0.26,0,1,1,.52,0v6.27A0.26,0.26,0,0,1,71.31,71.41Z" transform="translate(-59.74 -55.35)"/><path class="cls-2" d="M68,72.06a0.91,0.91,0,0,1-.66-0.28,0.91,0.91,0,0,1-.65.28,0.26,0.26,0,1,1,0-.52,0.4,0.4,0,0,0,.4-0.4,0.26,0.26,0,0,1,.52,0,0.4,0.4,0,0,0,.4.4A0.26,0.26,0,0,1,68,72.06Z" transform="translate(-59.74 -55.35)"/><path class="cls-2" d="M67.37,71.41a0.26,0.26,0,0,1-.26-0.26V64.88a0.26,0.26,0,1,1,.52,0v6.27A0.26,0.26,0,0,1,67.37,71.41Z" transform="translate(-59.74 -55.35)"/><path class="cls-3" d="M73.61,63.67c0,3.46-.8,6.27-4.27,6.27s-4.27-2.81-4.27-6.27,0.8-6.27,4.27-6.27S73.61,60.21,73.61,63.67Z" transform="translate(-59.74 -55.35)"/><path class="cls-3" d="M74.19,55.35a19.94,19.94,0,0,0-3.65,3.31,1.43,1.43,0,0,0,1.5.27C73.33,58.42,73.94,56.29,74.19,55.35Z" transform="translate(-59.74 -55.35)"/><path class="cls-3" d="M64.7,55.35a19.94,19.94,0,0,1,3.65,3.31,1.43,1.43,0,0,1-1.5.27C65.56,58.42,64.95,56.29,64.7,55.35Z" transform="translate(-59.74 -55.35)"/><path class="cls-4" d="M69.34,61.42a1.1,1.1,0,0,0-.81-1.05A1.09,1.09,0,0,0,67,58.88a1.09,1.09,0,0,0-2.11,0,1.09,1.09,0,0,0-1.49,1.49,1.09,1.09,0,0,0,0,2.11A1.09,1.09,0,0,0,64.94,64,1.09,1.09,0,0,0,67,64a1.09,1.09,0,0,0,1.49-1.49A1.1,1.1,0,0,0,69.34,61.42Z" transform="translate(-59.74 -55.35)"/><circle class="cls-5" cx="6.26" cy="6.07" r="2.23"/><circle class="cls-6" cx="6.26" cy="6.07" r="1.12"/><circle class="cls-5" cx="6.26" cy="5.31" r="0.36"/><path class="cls-4" d="M76,61.42a1.1,1.1,0,0,0-.81-1.05,1.09,1.09,0,0,0-1.49-1.49,1.09,1.09,0,0,0-2.11,0,1.09,1.09,0,0,0-1.49,1.49,1.09,1.09,0,0,0,0,2.11A1.09,1.09,0,0,0,71.64,64a1.09,1.09,0,0,0,2.11,0,1.09,1.09,0,0,0,1.49-1.49A1.1,1.1,0,0,0,76,61.42Z" transform="translate(-59.74 -55.35)"/><circle class="cls-5" cx="12.95" cy="6.07" r="2.23"/><circle class="cls-6" cx="12.95" cy="6.07" r="1.12"/><circle class="cls-5" cx="12.95" cy="5.31" r="0.36"/><rect class="cls-7" x="68.77" y="61.81" width="1.15" height="1.15" transform="translate(-83.54 11.96) rotate(-45)"/></svg>
