<svg id="Layer_1" data-name="Layer 1" xmlns="http://www.w3.org/2000/svg" viewBox="0 0 13.4 16.74"><defs><style>.cls-1{fill:#431d08;}.cls-2{fill:[b];}.cls-3{fill:[a];}.cls-4{fill:#fff;}.cls-5{fill:#000001;}.cls-6{fill:[beak];}</style></defs><title>owl18</title><path class="cls-1" d="M53.29,93.8a0.91,0.91,0,0,1-.66-0.28,0.91,0.91,0,0,1-.66.28,0.26,0.26,0,0,1,0-.52,0.4,0.4,0,0,0,.4-0.4,0.26,0.26,0,0,1,.52,0,0.4,0.4,0,0,0,.4.4A0.26,0.26,0,0,1,53.29,93.8Z" transform="translate(-43.96 -77.09)"/><path class="cls-1" d="M52.63,93.15a0.26,0.26,0,0,1-.26-0.26V86.62a0.26,0.26,0,1,1,.52,0v6.27A0.26,0.26,0,0,1,52.63,93.15Z" transform="translate(-43.96 -77.09)"/><path class="cls-1" d="M49.34,93.8a0.91,0.91,0,0,1-.66-0.28,0.91,0.91,0,0,1-.65.28,0.26,0.26,0,1,1,0-.52,0.4,0.4,0,0,0,.4-0.4,0.26,0.26,0,0,1,.52,0,0.4,0.4,0,0,0,.4.4A0.26,0.26,0,0,1,49.34,93.8Z" transform="translate(-43.96 -77.09)"/><path class="cls-1" d="M48.69,93.15a0.26,0.26,0,0,1-.26-0.26V86.62a0.26,0.26,0,1,1,.52,0v6.27A0.26,0.26,0,0,1,48.69,93.15Z" transform="translate(-43.96 -77.09)"/><ellipse class="cls-2" cx="6.7" cy="14.59" rx="0.65" ry="2.16"/><ellipse class="cls-2" cx="50.66" cy="91.67" rx="0.65" ry="2.15" transform="translate(-93.97 -14.31) rotate(-45.06)"/><ellipse class="cls-2" cx="50.66" cy="91.67" rx="2.15" ry="0.65" transform="translate(-93.95 -14.41) rotate(-45)"/><path class="cls-3" d="M54.92,85.41c0,3.46-.8,6.27-4.26,6.27s-4.27-2.81-4.27-6.27,0.81-6.27,4.27-6.27S54.92,82,54.92,85.41Z" transform="translate(-43.96 -77.09)"/><path class="cls-3" d="M55.46,77.09a20,20,0,0,0-3.65,3.31,1.43,1.43,0,0,0,1.5.27C54.6,80.16,55.21,78,55.46,77.09Z" transform="translate(-43.96 -77.09)"/><path class="cls-3" d="M46,77.09a20,20,0,0,1,3.65,3.31,1.43,1.43,0,0,1-1.5.27C46.83,80.16,46.22,78,46,77.09Z" transform="translate(-43.96 -77.09)"/><path class="cls-2" d="M53.32,91.45a7.43,7.43,0,0,0,2.85-3.94c0.66-2.15-1.31-1.37-2-.35A7.11,7.11,0,0,0,53.32,91.45Z" transform="translate(-43.96 -77.09)"/><path class="cls-2" d="M48,91.45a7.44,7.44,0,0,1-2.85-3.94c-0.66-2.15,1.31-1.37,2-.35A7.11,7.11,0,0,1,48,91.45Z" transform="translate(-43.96 -77.09)"/><path class="cls-2" d="M50.66,83.16a1.1,1.1,0,0,0-.81-1.05,1.09,1.09,0,0,0-1.49-1.49,1.09,1.09,0,0,0-2.11,0,1.09,1.09,0,0,0-1.49,1.49,1.09,1.09,0,0,0,0,2.11,1.09,1.09,0,0,0,1.49,1.49,1.09,1.09,0,0,0,2.1,0,1.09,1.09,0,0,0,1.49-1.49A1.1,1.1,0,0,0,50.66,83.16Z" transform="translate(-43.96 -77.09)"/><circle class="cls-4" cx="3.35" cy="6.07" r="2.23"/><circle class="cls-5" cx="3.35" cy="6.07" r="1.12"/><circle class="cls-4" cx="3.35" cy="5.31" r="0.36"/><path class="cls-2" d="M57.36,83.16a1.1,1.1,0,0,0-.81-1.05,1.09,1.09,0,0,0-1.49-1.49,1.09,1.09,0,0,0-2.11,0,1.09,1.09,0,0,0-1.49,1.49,1.09,1.09,0,0,0,0,2.11A1.09,1.09,0,0,0,53,85.7a1.09,1.09,0,0,0,2.11,0,1.09,1.09,0,0,0,1.49-1.49A1.1,1.1,0,0,0,57.36,83.16Z" transform="translate(-43.96 -77.09)"/><circle class="cls-4" cx="10.05" cy="6.07" r="2.23"/><circle class="cls-5" cx="10.05" cy="6.07" r="1.12"/><circle class="cls-4" cx="10.05" cy="5.31" r="0.36"/><rect class="cls-6" x="50.08" y="83.55" width="1.15" height="1.15" transform="translate(-88.62 -16.57) rotate(-45.04)"/></svg>
