<svg id="Layer_1" data-name="Layer 1" xmlns="http://www.w3.org/2000/svg" viewBox="0 0 13.45 15.81"><defs><style>.cls-1{fill:[c];}.cls-2{fill:[a];}.cls-3{fill:[b];}.cls-4{fill:#fff;}.cls-5{fill:#000001;}.cls-6{fill:[beak];}.cls-7{fill:#100d0f;}</style></defs><title>owl16</title><polygon class="cls-1" points="2.79 0.71 3.5 3.15 1.06 2.44 0.35 0 2.79 0.71"/><polygon class="cls-1" points="10.72 0.71 10.01 3.15 12.45 2.44 13.16 0 10.72 0.71"/><path class="cls-1" d="M15.77,91.38a1.15,1.15,0,0,0-.39-0.86,1.14,1.14,0,0,0-1.21-1.21,1.14,1.14,0,0,0-1.71,0,1.14,1.14,0,0,0-1.21,1.21,1.14,1.14,0,0,0,0,1.71,1.14,1.14,0,0,0,1.21,1.21,1.14,1.14,0,0,0,1.71,0,1.14,1.14,0,0,0,1.21-1.21A1.15,1.15,0,0,0,15.77,91.38Z" transform="translate(-6.56 -78.02)"/><path class="cls-2" d="M19.93,85.16c0,5.76-4.6,6.22-6.61,6.22S6.7,90.92,6.7,85.16,9.66,78,13.32,78,19.93,79.4,19.93,85.16Z" transform="translate(-6.56 -78.02)"/><path class="cls-1" d="M6.63,84.84s2,1,2.27,4.64S6.07,88.79,6.63,84.84Z" transform="translate(-6.56 -78.02)"/><path class="cls-1" d="M19.87,84.84s-2,1-2.27,4.64S20.43,88.79,19.87,84.84Z" transform="translate(-6.56 -78.02)"/><path class="cls-3" d="M13.32,82.94a1.1,1.1,0,0,0-.81-1.05A1.09,1.09,0,0,0,11,80.4a1.09,1.09,0,0,0-2.11,0,1.09,1.09,0,0,0-1.49,1.49,1.09,1.09,0,0,0,0,2.11,1.09,1.09,0,0,0,1.49,1.49,1.09,1.09,0,0,0,2.11,0A1.09,1.09,0,0,0,12.51,84,1.1,1.1,0,0,0,13.32,82.94Z" transform="translate(-6.56 -78.02)"/><circle class="cls-4" cx="3.41" cy="4.92" r="2.23"/><circle class="cls-5" cx="3.41" cy="4.92" r="1.12"/><circle class="cls-4" cx="3.41" cy="4.17" r="0.36"/><path class="cls-3" d="M20,82.94a1.1,1.1,0,0,0-.81-1.05,1.09,1.09,0,0,0-1.49-1.49,1.09,1.09,0,0,0-2.11,0,1.09,1.09,0,0,0-1.49,1.49,1.09,1.09,0,0,0,0,2.11,1.09,1.09,0,0,0,1.49,1.49,1.09,1.09,0,0,0,2.1,0A1.09,1.09,0,0,0,19.21,84,1.1,1.1,0,0,0,20,82.94Z" transform="translate(-6.56 -78.02)"/><circle class="cls-4" cx="10.1" cy="4.92" r="2.23"/><circle class="cls-5" cx="10.1" cy="4.92" r="1.12"/><circle class="cls-4" cx="10.1" cy="4.17" r="0.36"/><rect class="cls-6" x="12.27" y="83.91" width="2.09" height="2.09" transform="translate(-62.76 -43.68) rotate(-45.03)"/><polygon class="cls-7" points="7.74 7.06 6.75 8.05 5.77 7.06 6.75 7.55 7.74 7.06"/></svg>
