<svg id="Layer_1" data-name="Layer 1" xmlns="http://www.w3.org/2000/svg" viewBox="0 0 14.31 18.71"><defs><style>.cls-1{fill:[b];}.cls-2{fill:[a];}.cls-3{fill:#fff;}.cls-4{fill:#000001;}.cls-5{fill:[beak];}.cls-6{fill:#100d0f;}</style></defs><title>owl12</title><path class="cls-1" d="M34.35,69.61A1.16,1.16,0,0,0,34,68.76a1.14,1.14,0,0,0-1.21-1.21,1.14,1.14,0,0,0-1.71,0,1.14,1.14,0,0,0-1.21,1.21,1.14,1.14,0,0,0,0,1.71A1.14,1.14,0,0,0,31,71.68a1.14,1.14,0,0,0,1.71,0A1.14,1.14,0,0,0,34,70.47,1.16,1.16,0,0,0,34.35,69.61Z" transform="translate(-24.82 -53.35)"/><path class="cls-2" d="M38.51,60.48c0,5.76-4.6,9.13-6.61,9.13s-6.61-3.37-6.61-9.13,3-7.13,6.61-7.13S38.51,54.72,38.51,60.48Z" transform="translate(-24.82 -53.35)"/><path class="cls-1" d="M25.35,60.15s3.26,2.49,1.62,7.77C23.4,64.63,25.35,60.15,25.35,60.15Z" transform="translate(-24.82 -53.35)"/><path class="cls-1" d="M38.6,60.15S35.34,62.64,37,67.93C40.55,64.63,38.6,60.15,38.6,60.15Z" transform="translate(-24.82 -53.35)"/><circle class="cls-1" cx="3.73" cy="4.91" r="3.35"/><circle class="cls-3" cx="3.73" cy="4.91" r="2.23"/><circle class="cls-4" cx="3.73" cy="4.91" r="1.12"/><circle class="cls-3" cx="3.73" cy="4.16" r="0.36"/><circle class="cls-1" cx="10.43" cy="4.91" r="3.35"/><circle class="cls-3" cx="10.43" cy="4.91" r="2.23"/><circle class="cls-4" cx="10.43" cy="4.91" r="1.12"/><circle class="cls-3" cx="10.43" cy="4.16" r="0.36"/><rect class="cls-5" x="30.87" y="59.23" width="2.09" height="2.09" transform="translate(-58.1 -13.1) rotate(-45.02)"/><polygon class="cls-6" points="8.08 7.05 7.09 8.04 6.11 7.05 7.09 7.55 8.08 7.05"/><path class="cls-3" d="M28.67,63.36a0.22,0.22,0,0,1-.22.22H28a0.22,0.22,0,0,1-.22-0.22h0A0.22,0.22,0,0,1,28,63.14h0.41a0.22,0.22,0,0,1,.22.22h0Z" transform="translate(-24.82 -53.35)"/><path class="cls-3" d="M30.54,63.36a0.22,0.22,0,0,1-.22.22H29.91a0.22,0.22,0,0,1-.22-0.22h0a0.22,0.22,0,0,1,.22-0.22h0.41a0.22,0.22,0,0,1,.22.22h0Z" transform="translate(-24.82 -53.35)"/><path class="cls-3" d="M32.4,63.36a0.22,0.22,0,0,1-.22.22H31.77a0.22,0.22,0,0,1-.22-0.22h0a0.22,0.22,0,0,1,.22-0.22h0.41a0.22,0.22,0,0,1,.22.22h0Z" transform="translate(-24.82 -53.35)"/><path class="cls-3" d="M34.26,63.36a0.22,0.22,0,0,1-.22.22H33.63a0.22,0.22,0,0,1-.22-0.22h0a0.22,0.22,0,0,1,.22-0.22H34a0.22,0.22,0,0,1,.22.22h0Z" transform="translate(-24.82 -53.35)"/><path class="cls-3" d="M36.12,63.36a0.22,0.22,0,0,1-.22.22H35.49a0.22,0.22,0,0,1-.22-0.22h0a0.22,0.22,0,0,1,.22-0.22H35.9a0.22,0.22,0,0,1,.22.22h0Z" transform="translate(-24.82 -53.35)"/><path class="cls-3" d="M29.6,64.68a0.22,0.22,0,0,1-.22.22H29a0.22,0.22,0,0,1-.22-0.22h0A0.22,0.22,0,0,1,29,64.46h0.41a0.22,0.22,0,0,1,.22.22h0Z" transform="translate(-24.82 -53.35)"/><path class="cls-3" d="M31.47,64.68a0.22,0.22,0,0,1-.22.22H30.84a0.22,0.22,0,0,1-.22-0.22h0a0.22,0.22,0,0,1,.22-0.22h0.41a0.22,0.22,0,0,1,.22.22h0Z" transform="translate(-24.82 -53.35)"/><path class="cls-3" d="M33.33,64.68a0.22,0.22,0,0,1-.22.22H32.7a0.22,0.22,0,0,1-.22-0.22h0a0.22,0.22,0,0,1,.22-0.22h0.41a0.22,0.22,0,0,1,.22.22h0Z" transform="translate(-24.82 -53.35)"/><path class="cls-3" d="M35.19,64.68a0.22,0.22,0,0,1-.22.22H34.56a0.22,0.22,0,0,1-.22-0.22h0a0.22,0.22,0,0,1,.22-0.22H35a0.22,0.22,0,0,1,.22.22h0Z" transform="translate(-24.82 -53.35)"/><path class="cls-3" d="M30.54,66a0.22,0.22,0,0,1-.22.22H29.91A0.22,0.22,0,0,1,29.69,66h0a0.22,0.22,0,0,1,.22-0.22h0.41a0.22,0.22,0,0,1,.22.22h0Z" transform="translate(-24.82 -53.35)"/><path class="cls-3" d="M32.4,66a0.22,0.22,0,0,1-.22.22H31.77A0.22,0.22,0,0,1,31.55,66h0a0.22,0.22,0,0,1,.22-0.22h0.41a0.22,0.22,0,0,1,.22.22h0Z" transform="translate(-24.82 -53.35)"/><path class="cls-3" d="M34.26,66a0.22,0.22,0,0,1-.22.22H33.63A0.22,0.22,0,0,1,33.41,66h0a0.22,0.22,0,0,1,.22-0.22H34a0.22,0.22,0,0,1,.22.22h0Z" transform="translate(-24.82 -53.35)"/></svg>
