<svg id="Layer_1" data-name="Layer 1" xmlns="http://www.w3.org/2000/svg" viewBox="0 0 13.48 14.94"><defs><style>.cls-1{fill:#431d08;}.cls-2{fill:[b];}.cls-3{fill:[a];}.cls-4{fill:[beak];}.cls-5{fill:#fff;}.cls-6{fill:#000001;}</style></defs><title>owl17</title><path class="cls-1" d="M34.62,93.83A0.91,0.91,0,0,1,34,93.55a0.91,0.91,0,0,1-.65.28,0.26,0.26,0,1,1,0-.52,0.4,0.4,0,0,0,.4-0.4,0.26,0.26,0,0,1,.52,0,0.4,0.4,0,0,0,.4.4A0.26,0.26,0,1,1,34.62,93.83Z" transform="translate(-25.23 -78.89)"/><path class="cls-1" d="M34,93.17a0.26,0.26,0,0,1-.26-0.26V86.64a0.26,0.26,0,1,1,.52,0v6.27A0.26,0.26,0,0,1,34,93.17Z" transform="translate(-25.23 -78.89)"/><path class="cls-1" d="M30.68,93.83A0.91,0.91,0,0,1,30,93.55a0.9,0.9,0,0,1-.65.28,0.26,0.26,0,1,1,0-.52,0.4,0.4,0,0,0,.4-0.4,0.26,0.26,0,0,1,.52,0,0.4,0.4,0,0,0,.4.4A0.26,0.26,0,0,1,30.68,93.83Z" transform="translate(-25.23 -78.89)"/><path class="cls-1" d="M30,93.17a0.26,0.26,0,0,1-.26-0.26V86.64a0.26,0.26,0,1,1,.52,0v6.27A0.26,0.26,0,0,1,30,93.17Z" transform="translate(-25.23 -78.89)"/><path class="cls-2" d="M33,91.51H31s-2.26.87,0,1.06c-0.62.94-.23,2.07,1,0.4,1.2,1.67,1.59.54,1-.4C35.24,92.38,33,91.51,33,91.51Z" transform="translate(-25.23 -78.89)"/><path class="cls-3" d="M29,80.19A4.08,4.08,0,0,1,27.28,80a7.67,7.67,0,0,1-1.38-.76c-0.5-.26-1,0.19-0.43.76,1.37,1.45,1.49,3.41,1.81,4.21S29,80.19,29,80.19Z" transform="translate(-25.23 -78.89)"/><path class="cls-3" d="M34.95,80.19A4.07,4.07,0,0,0,36.67,80,7.58,7.58,0,0,0,38,79.21c0.5-.26,1,0.19.43,0.76-1.37,1.45-1.49,3.41-1.81,4.21S34.95,80.19,34.95,80.19Z" transform="translate(-25.23 -78.89)"/><ellipse class="cls-3" cx="6.76" cy="6.97" rx="5.2" ry="6.19"/><rect class="cls-4" x="31.22" y="84.13" width="1.54" height="1.55" transform="translate(-75.88 -31.44) rotate(-44.98)"/><path class="cls-2" d="M32,82.24a1.1,1.1,0,0,0-.81-1.05,1.09,1.09,0,0,0-1.49-1.49,1.09,1.09,0,0,0-2.11,0,1.09,1.09,0,0,0-1.49,1.49,1.09,1.09,0,0,0,0,2.11,1.09,1.09,0,0,0,1.49,1.49,1.09,1.09,0,0,0,2.1,0,1.09,1.09,0,0,0,1.49-1.49A1.1,1.1,0,0,0,32,82.24Z" transform="translate(-25.23 -78.89)"/><circle class="cls-5" cx="3.39" cy="3.35" r="2.23"/><circle class="cls-6" cx="3.39" cy="3.35" r="1.12"/><circle class="cls-5" cx="3.39" cy="2.59" r="0.37"/><path class="cls-2" d="M38.67,82.24a1.1,1.1,0,0,0-.81-1.05,1.09,1.09,0,0,0-1.49-1.49,1.09,1.09,0,0,0-2.11,0,1.09,1.09,0,0,0-1.49,1.49,1.09,1.09,0,0,0,0,2.11,1.09,1.09,0,0,0,1.49,1.49,1.09,1.09,0,0,0,2.11,0,1.09,1.09,0,0,0,1.49-1.49A1.1,1.1,0,0,0,38.67,82.24Z" transform="translate(-25.23 -78.89)"/><circle class="cls-5" cx="10.09" cy="3.35" r="2.23"/><circle class="cls-6" cx="10.09" cy="3.35" r="1.12"/><circle class="cls-5" cx="10.09" cy="2.59" r="0.37"/><path class="cls-2" d="M26.71,84.9s2.6,2,1.3,6.22A5.67,5.67,0,0,1,26.71,84.9Z" transform="translate(-25.23 -78.89)"/><path class="cls-2" d="M37.31,84.9s-2.6,2-1.3,6.22A5.67,5.67,0,0,0,37.31,84.9Z" transform="translate(-25.23 -78.89)"/></svg>
