<svg id="Layer_1" data-name="Layer 1" xmlns="http://www.w3.org/2000/svg" viewBox="0 0 21.28 15.21"><defs><style>.cls-1{fill:[c];}.cls-2{fill:#0a0a15;}.cls-3{fill:[a];}.cls-4{fill:[b];}.cls-5{fill:#fff;}.cls-6{fill:#000001;}.cls-7{fill:[beak];}</style></defs><title>owl19</title><path class="cls-1" d="M65.49,88.81a24.65,24.65,0,0,0-5.73-5.23c-2.31-1.33-.26.91,0.7,1.83-0.84,0-2.69,1.73.35,2.54C60.52,88.2,60.09,90.89,65.49,88.81Z" transform="translate(-58.7 -78.62)"/><path class="cls-1" d="M73.2,88.81a24.62,24.62,0,0,1,5.73-5.23c2.31-1.33.26,0.91-.7,1.83,0.84,0,2.69,1.73-.36,2.54C78.17,88.2,78.59,90.89,73.2,88.81Z" transform="translate(-58.7 -78.62)"/><path class="cls-2" d="M72,93.83a0.91,0.91,0,0,1-.66-0.28,0.9,0.9,0,0,1-.65.28,0.26,0.26,0,1,1,0-.52,0.4,0.4,0,0,0,.4-0.4,0.26,0.26,0,0,1,.52,0,0.4,0.4,0,0,0,.4.4A0.26,0.26,0,1,1,72,93.83Z" transform="translate(-58.7 -78.62)"/><path class="cls-2" d="M71.31,93.17a0.26,0.26,0,0,1-.26-0.26V86.64a0.26,0.26,0,1,1,.52,0v6.27A0.26,0.26,0,0,1,71.31,93.17Z" transform="translate(-58.7 -78.62)"/><path class="cls-2" d="M68,93.83a0.91,0.91,0,0,1-.66-0.28,0.9,0.9,0,0,1-.65.28,0.26,0.26,0,1,1,0-.52,0.4,0.4,0,0,0,.4-0.4,0.26,0.26,0,0,1,.52,0,0.4,0.4,0,0,0,.4.4A0.26,0.26,0,0,1,68,93.83Z" transform="translate(-58.7 -78.62)"/><path class="cls-2" d="M67.37,93.17a0.26,0.26,0,0,1-.26-0.26V86.64a0.26,0.26,0,1,1,.52,0v6.27A0.26,0.26,0,0,1,67.37,93.17Z" transform="translate(-58.7 -78.62)"/><path class="cls-3" d="M76.49,87.17c0,4.53-3.2,5.19-7.15,5.19s-7.15-.67-7.15-5.19S65.4,79,69.34,79,76.49,82.64,76.49,87.17Z" transform="translate(-58.7 -78.62)"/><circle class="cls-4" cx="7.42" cy="5.83" r="3.22"/><circle class="cls-5" cx="7.42" cy="5.83" r="2.36"/><circle class="cls-6" cx="7.42" cy="5.83" r="1.03"/><circle class="cls-5" cx="7.42" cy="5.06" r="0.26"/><circle class="cls-4" cx="13.86" cy="5.83" r="3.22"/><circle class="cls-5" cx="13.86" cy="5.83" r="2.36"/><circle class="cls-6" cx="13.86" cy="5.83" r="1.03"/><circle class="cls-5" cx="13.86" cy="5.06" r="0.26"/><rect class="cls-7" x="68.77" y="85.7" width="1.15" height="1.15" transform="translate(-99.4 -4.31) rotate(-45)"/><path class="cls-1" d="M66,82.81a3.42,3.42,0,0,0,2.33-.62,4.23,4.23,0,0,0-1-1,10,10,0,0,0-5-1.52s-1-1-1-1C62.57,81.07,64.51,82.71,66,82.81Z" transform="translate(-58.7 -78.62)"/><path class="cls-1" d="M72.71,82.81a3.42,3.42,0,0,1-2.33-.62,4.18,4.18,0,0,1,1-1,10,10,0,0,1,5-1.52s1-1,1-1C76.12,81.07,74.18,82.71,72.71,82.81Z" transform="translate(-58.7 -78.62)"/><path class="cls-5" d="M67.13,88.08h0a0.92,0.92,0,0,1-.92.92h0a0.92,0.92,0,0,1-.91-0.92h1.83Z" transform="translate(-58.7 -78.62)"/><path class="cls-5" d="M69.21,88.08h0a0.92,0.92,0,0,1-.92.92h0a0.92,0.92,0,0,1-.91-0.92h1.83Z" transform="translate(-58.7 -78.62)"/><path class="cls-5" d="M71.3,88.08h0a0.92,0.92,0,0,1-.92.92h0a0.92,0.92,0,0,1-.91-0.92H71.3Z" transform="translate(-58.7 -78.62)"/><path class="cls-5" d="M73.39,88.08h0a0.92,0.92,0,0,1-.92.92h0a0.92,0.92,0,0,1-.92-0.92h1.83Z" transform="translate(-58.7 -78.62)"/><path class="cls-5" d="M68.17,89.3h0a0.92,0.92,0,0,1-.92.92h0a0.92,0.92,0,0,1-.92-0.92h1.83Z" transform="translate(-58.7 -78.62)"/><path class="cls-5" d="M70.26,89.3h0a0.92,0.92,0,0,1-.92.92h0a0.92,0.92,0,0,1-.92-0.92h1.83Z" transform="translate(-58.7 -78.62)"/><path class="cls-5" d="M72.35,89.3h0a0.92,0.92,0,0,1-.92.92h0a0.92,0.92,0,0,1-.92-0.92h1.83Z" transform="translate(-58.7 -78.62)"/><path class="cls-5" d="M69.22,90.52h0a0.92,0.92,0,0,1-.91.92h0a0.92,0.92,0,0,1-.92-0.92h1.83Z" transform="translate(-58.7 -78.62)"/><path class="cls-5" d="M71.3,90.52h0a0.92,0.92,0,0,1-.91.92h0a0.91,0.91,0,0,1-.92-0.92H71.3Z" transform="translate(-58.7 -78.62)"/></svg>
