<svg id="Layer_1" data-name="Layer 1" xmlns="http://www.w3.org/2000/svg" viewBox="0 0 16.93 14.73"><defs><style>.cls-1{fill:[b];}.cls-2{fill:[a];}.cls-3{fill:#fff;}.cls-4{fill:#000001;}.cls-5{fill:[beak];}</style></defs><title>owl13</title><ellipse class="cls-1" cx="8.47" cy="12.57" rx="0.65" ry="2.16"/><ellipse class="cls-1" cx="50.66" cy="69.91" rx="0.65" ry="2.15" transform="translate(-76.8 -0.95) rotate(-45.06)"/><ellipse class="cls-1" cx="50.66" cy="69.91" rx="2.15" ry="0.65" transform="translate(-76.79 -1.03) rotate(-45)"/><path class="cls-2" d="M57.27,64.47c0,5.76-4.6,6.22-6.61,6.22S44,70.23,44,64.47s3-7.13,6.61-7.13S57.27,58.71,57.27,64.47Z" transform="translate(-42.19 -57.33)"/><path class="cls-1" d="M46.77,65.67c0.68,1.6.17,4.42-.48,4.7s-3-1.33-3.7-2.93-0.57-3.17.87-3.78S46.1,64.08,46.77,65.67Z" transform="translate(-42.19 -57.33)"/><path class="cls-1" d="M54.55,65.67c-0.68,1.6-.17,4.42.48,4.7s3-1.33,3.7-2.93,0.57-3.17-.87-3.78S55.22,64.08,54.55,65.67Z" transform="translate(-42.19 -57.33)"/><circle class="cls-1" cx="5.24" cy="3.51" r="3.22"/><circle class="cls-3" cx="5.24" cy="3.51" r="2.36"/><circle class="cls-4" cx="5.24" cy="3.51" r="1.03"/><circle class="cls-3" cx="5.24" cy="2.74" r="0.26"/><circle class="cls-1" cx="11.69" cy="3.51" r="3.22"/><circle class="cls-3" cx="11.69" cy="3.51" r="2.36"/><circle class="cls-4" cx="11.69" cy="3.51" r="1.03"/><circle class="cls-3" cx="11.69" cy="2.74" r="0.26"/><rect class="cls-5" x="50.1" y="62.1" width="1.15" height="1.15" transform="translate(-71.68 -3.09) rotate(-45.04)"/><path class="cls-3" d="M48.45,65.47h0a0.92,0.92,0,0,1-.92.92h0a0.92,0.92,0,0,1-.92-0.92h1.83Z" transform="translate(-42.19 -57.33)"/><path class="cls-3" d="M50.53,65.47h0a0.92,0.92,0,0,1-.92.92h0a0.92,0.92,0,0,1-.92-0.92h1.83Z" transform="translate(-42.19 -57.33)"/><path class="cls-3" d="M52.62,65.47h0a0.92,0.92,0,0,1-.92.92h0a0.91,0.91,0,0,1-.91-0.92h1.83Z" transform="translate(-42.19 -57.33)"/><path class="cls-3" d="M54.7,65.47h0a0.92,0.92,0,0,1-.91.92h0a0.92,0.92,0,0,1-.92-0.92H54.7Z" transform="translate(-42.19 -57.33)"/><path class="cls-3" d="M49.49,66.69h0a0.91,0.91,0,0,1-.91.91h0a0.91,0.91,0,0,1-.92-0.91h1.83Z" transform="translate(-42.19 -57.33)"/><path class="cls-3" d="M51.57,66.69h0a0.91,0.91,0,0,1-.91.91h0a0.91,0.91,0,0,1-.92-0.91h1.83Z" transform="translate(-42.19 -57.33)"/><path class="cls-3" d="M53.66,66.69h0a0.91,0.91,0,0,1-.91.91h0a0.91,0.91,0,0,1-.92-0.91h1.83Z" transform="translate(-42.19 -57.33)"/><path class="cls-3" d="M50.53,67.9h0a0.91,0.91,0,0,1-.91.92h0a0.92,0.92,0,0,1-.92-0.92h1.83Z" transform="translate(-42.19 -57.33)"/><path class="cls-3" d="M52.62,67.9h0a0.91,0.91,0,0,1-.91.92h0a0.91,0.91,0,0,1-.91-0.92h1.83Z" transform="translate(-42.19 -57.33)"/></svg>
