<svg id="Layer_1" data-name="Layer 1" xmlns="http://www.w3.org/2000/svg" viewBox="0 0 16 17.98"><defs><style>.cls-1{fill:#0a0a15;}.cls-2{fill:[a];}.cls-3{fill:[b];}.cls-4{fill:[c];}.cls-5{fill:#fff;}.cls-6{fill:#000001;}.cls-7{fill:[beak];}.cls-8{fill:[c];}</style></defs><title>owl11</title><path class="cls-1" d="M15.91,72.06a0.91,0.91,0,0,1-.66-0.28,0.91,0.91,0,0,1-.66.28,0.26,0.26,0,1,1,0-.52,0.4,0.4,0,0,0,.4-0.4,0.26,0.26,0,0,1,.52,0,0.4,0.4,0,0,0,.4.4A0.26,0.26,0,0,1,15.91,72.06Z" transform="translate(-5.29 -54.08)"/><path class="cls-1" d="M15.26,71.41A0.26,0.26,0,0,1,15,71.15V64.88a0.26,0.26,0,1,1,.52,0v6.27A0.26,0.26,0,0,1,15.26,71.41Z" transform="translate(-5.29 -54.08)"/><path class="cls-1" d="M12,72.06a0.91,0.91,0,0,1-.66-0.28,0.91,0.91,0,0,1-.65.28,0.26,0.26,0,1,1,0-.52,0.4,0.4,0,0,0,.4-0.4,0.26,0.26,0,0,1,.52,0,0.4,0.4,0,0,0,.4.4A0.26,0.26,0,0,1,12,72.06Z" transform="translate(-5.29 -54.08)"/><path class="cls-1" d="M11.32,71.41a0.26,0.26,0,0,1-.26-0.26V64.88a0.26,0.26,0,1,1,.52,0v6.27A0.26,0.26,0,0,1,11.32,71.41Z" transform="translate(-5.29 -54.08)"/><ellipse class="cls-2" cx="8" cy="9.03" rx="7.33" ry="7.75"/><path class="cls-2" d="M10,56.06a3.38,3.38,0,0,1-2.8-1.86c-0.28-.41-0.33.23-0.08,1a4,4,0,0,0,.81,1.47A2.12,2.12,0,0,0,9,57.39a1.3,1.3,0,0,0,1.59-1.32H10Z" transform="translate(-5.29 -54.08)"/><path class="cls-2" d="M16.62,56.06a3.38,3.38,0,0,0,2.8-1.86c0.28-.41.33,0.23,0.08,1a4,4,0,0,1-.81,1.47,2.12,2.12,0,0,1-1.12.67A1.3,1.3,0,0,1,16,56.07h0.64Z" transform="translate(-5.29 -54.08)"/><path class="cls-3" d="M19.08,64.83a5.79,5.79,0,0,1-11.59,0c0-3.2,2.59-3.36,5.79-3.36S19.08,61.63,19.08,64.83Z" transform="translate(-5.29 -54.08)"/><path class="cls-4" d="M13.29,60.44a1.1,1.1,0,0,0-.81-1.05A1.09,1.09,0,0,0,11,57.9a1.09,1.09,0,0,0-2.11,0A1.09,1.09,0,0,0,7.4,59.39a1.09,1.09,0,0,0,0,2.11A1.09,1.09,0,0,0,8.89,63,1.09,1.09,0,0,0,11,63a1.09,1.09,0,0,0,1.49-1.49A1.1,1.1,0,0,0,13.29,60.44Z" transform="translate(-5.29 -54.08)"/><circle class="cls-5" cx="4.65" cy="6.37" r="2.23"/><circle class="cls-6" cx="4.65" cy="6.37" r="1.12"/><circle class="cls-5" cx="4.65" cy="5.61" r="0.36"/><path class="cls-4" d="M20,60.44a1.1,1.1,0,0,0-.81-1.05,1.09,1.09,0,0,0-1.49-1.49,1.09,1.09,0,0,0-2.11,0,1.09,1.09,0,0,0-1.49,1.49,1.09,1.09,0,0,0,0,2.11A1.09,1.09,0,0,0,15.58,63a1.09,1.09,0,0,0,2.11,0,1.09,1.09,0,0,0,1.49-1.49A1.1,1.1,0,0,0,20,60.44Z" transform="translate(-5.29 -54.08)"/><circle class="cls-5" cx="11.35" cy="6.37" r="2.23"/><circle class="cls-6" cx="11.35" cy="6.37" r="1.12"/><circle class="cls-5" cx="11.35" cy="5.61" r="0.36"/><rect class="cls-7" x="12.71" y="60.83" width="1.15" height="1.15" transform="translate(-44.82 -26.69) rotate(-45)"/><path class="cls-8" d="M5.54,61.94S8.48,62,7.49,64.48a1.4,1.4,0,0,1,0,1.84,1.52,1.52,0,0,1,0,1.44S4.4,66.21,5.54,61.94Z" transform="translate(-5.29 -54.08)"/><path class="cls-8" d="M21,61.94s-2.94.08-2,2.54a1.4,1.4,0,0,0,0,1.84,1.53,1.53,0,0,0,0,1.44S22.18,66.21,21,61.94Z" transform="translate(-5.29 -54.08)"/><path class="cls-5" d="M10,64.88a0.22,0.22,0,0,1-.22.22H9.36a0.22,0.22,0,0,1-.22-0.22h0a0.22,0.22,0,0,1,.22-0.22H9.77a0.22,0.22,0,0,1,.22.22h0Z" transform="translate(-5.29 -54.08)"/><path class="cls-5" d="M11.85,64.88a0.22,0.22,0,0,1-.22.22H11.22A0.22,0.22,0,0,1,11,64.88h0a0.22,0.22,0,0,1,.22-0.22h0.41a0.22,0.22,0,0,1,.22.22h0Z" transform="translate(-5.29 -54.08)"/><path class="cls-5" d="M13.71,64.88a0.22,0.22,0,0,1-.22.22H13.08a0.22,0.22,0,0,1-.22-0.22h0a0.22,0.22,0,0,1,.22-0.22h0.41a0.22,0.22,0,0,1,.22.22h0Z" transform="translate(-5.29 -54.08)"/><path class="cls-5" d="M15.57,64.88a0.22,0.22,0,0,1-.22.22H14.95a0.22,0.22,0,0,1-.22-0.22h0a0.22,0.22,0,0,1,.22-0.22h0.41a0.22,0.22,0,0,1,.22.22h0Z" transform="translate(-5.29 -54.08)"/><path class="cls-5" d="M17.44,64.88a0.22,0.22,0,0,1-.22.22H16.81a0.22,0.22,0,0,1-.22-0.22h0a0.22,0.22,0,0,1,.22-0.22h0.41a0.22,0.22,0,0,1,.22.22h0Z" transform="translate(-5.29 -54.08)"/><path class="cls-5" d="M10.92,66.2a0.22,0.22,0,0,1-.22.22H10.29a0.22,0.22,0,0,1-.22-0.22h0A0.22,0.22,0,0,1,10.29,66H10.7a0.22,0.22,0,0,1,.22.22h0Z" transform="translate(-5.29 -54.08)"/><path class="cls-5" d="M12.78,66.2a0.22,0.22,0,0,1-.22.22H12.15a0.22,0.22,0,0,1-.22-0.22h0A0.22,0.22,0,0,1,12.15,66h0.41a0.22,0.22,0,0,1,.22.22h0Z" transform="translate(-5.29 -54.08)"/><path class="cls-5" d="M14.64,66.2a0.22,0.22,0,0,1-.22.22H14a0.22,0.22,0,0,1-.22-0.22h0A0.22,0.22,0,0,1,14,66h0.41a0.22,0.22,0,0,1,.22.22h0Z" transform="translate(-5.29 -54.08)"/><path class="cls-5" d="M16.51,66.2a0.22,0.22,0,0,1-.22.22H15.88a0.22,0.22,0,0,1-.22-0.22h0A0.22,0.22,0,0,1,15.88,66h0.41a0.22,0.22,0,0,1,.22.22h0Z" transform="translate(-5.29 -54.08)"/><path class="cls-5" d="M11.85,67.52a0.22,0.22,0,0,1-.22.22H11.22A0.22,0.22,0,0,1,11,67.52h0a0.22,0.22,0,0,1,.22-0.22h0.41a0.22,0.22,0,0,1,.22.22h0Z" transform="translate(-5.29 -54.08)"/><path class="cls-5" d="M13.71,67.52a0.22,0.22,0,0,1-.22.22H13.08a0.22,0.22,0,0,1-.22-0.22h0a0.22,0.22,0,0,1,.22-0.22h0.41a0.22,0.22,0,0,1,.22.22h0Z" transform="translate(-5.29 -54.08)"/><path class="cls-5" d="M15.57,67.52a0.22,0.22,0,0,1-.22.22H14.95a0.22,0.22,0,0,1-.22-0.22h0a0.22,0.22,0,0,1,.22-0.22h0.41a0.22,0.22,0,0,1,.22.22h0Z" transform="translate(-5.29 -54.08)"/></svg>
