<svg id="Layer_1" data-name="Layer 1" xmlns="http://www.w3.org/2000/svg" viewBox="0 0 12.89 15.33"><defs><style>.cls-1{fill:#431d08;}.cls-2{fill:[a];}.cls-3{fill:#150e0d;}.cls-4{fill:#fff;}.cls-5{fill:#000001;}.cls-6{fill:[beak];}.cls-7{fill:[b];}.cls-8{fill:[c];}</style></defs><title>owl20</title><path class="cls-1" d="M90.65,93.83A0.91,0.91,0,0,1,90,93.55a0.9,0.9,0,0,1-.65.28,0.26,0.26,0,1,1,0-.52,0.4,0.4,0,0,0,.4-0.4,0.26,0.26,0,0,1,.52,0,0.4,0.4,0,0,0,.4.4A0.26,0.26,0,1,1,90.65,93.83Z" transform="translate(-81.58 -78.49)"/><path class="cls-1" d="M90,93.17a0.26,0.26,0,0,1-.26-0.26V86.64a0.26,0.26,0,1,1,.52,0v6.27A0.26,0.26,0,0,1,90,93.17Z" transform="translate(-81.58 -78.49)"/><path class="cls-1" d="M86.71,93.83a0.91,0.91,0,0,1-.66-0.28,0.9,0.9,0,0,1-.65.28,0.26,0.26,0,1,1,0-.52,0.4,0.4,0,0,0,.4-0.4,0.26,0.26,0,0,1,.52,0,0.4,0.4,0,0,0,.4.4A0.26,0.26,0,0,1,86.71,93.83Z" transform="translate(-81.58 -78.49)"/><path class="cls-1" d="M86.06,93.17a0.26,0.26,0,0,1-.26-0.26V86.64a0.26,0.26,0,1,1,.52,0v6.27A0.26,0.26,0,0,1,86.06,93.17Z" transform="translate(-81.58 -78.49)"/><path class="cls-2" d="M93.43,83.32c1.45-2.26.18-5.89-.45-4.52a3.63,3.63,0,0,1-3.07,2.13,4.43,4.43,0,0,0-3.77,0,3.63,3.63,0,0,1-3.06-2.13c-0.63-1.37-1.9,2.26-.45,4.52v4.85c0,2.63,2.42,4.75,5.4,4.75s5.4-2.13,5.4-4.75V83.32Z" transform="translate(-81.58 -78.49)"/><ellipse class="cls-3" cx="82.63" cy="81.41" rx="0.3" ry="1.48" transform="translate(-91.82 -66.59) rotate(-7.76)"/><ellipse class="cls-3" cx="93.43" cy="81.41" rx="1.48" ry="0.3" transform="translate(-81.43 84.5) rotate(-82.24)"/><circle class="cls-2" cx="3.22" cy="6.61" r="3.22"/><circle class="cls-4" cx="3.22" cy="6.61" r="2.36"/><circle class="cls-5" cx="3.22" cy="6.61" r="1.03"/><circle class="cls-4" cx="3.22" cy="5.84" r="0.26"/><circle class="cls-2" cx="9.67" cy="6.61" r="3.22"/><circle class="cls-4" cx="9.67" cy="6.61" r="2.36"/><circle class="cls-5" cx="9.67" cy="6.61" r="1.03"/><circle class="cls-4" cx="9.67" cy="5.84" r="0.26"/><polygon class="cls-6" points="7.28 8.44 6.46 9.26 5.65 8.44 6.46 7.63 7.28 8.44"/><path class="cls-7" d="M88,88.33a15.08,15.08,0,0,0-5.25.89,5.58,5.58,0,0,0,10.51,0A15.08,15.08,0,0,0,88,88.33Z" transform="translate(-81.58 -78.49)"/><path class="cls-8" d="M82.78,88s2.94,0.08,1.95,2.54a1.4,1.4,0,0,1,0,1.84,1.52,1.52,0,0,1,0,1.44S81.64,92.28,82.78,88Z" transform="translate(-81.58 -78.49)"/><path class="cls-8" d="M93.28,88s-2.94.08-1.95,2.54a1.4,1.4,0,0,0,0,1.84,1.52,1.52,0,0,0-.05,1.44S94.42,92.28,93.28,88Z" transform="translate(-81.58 -78.49)"/></svg>
