<svg id="Layer_1" data-name="Layer 1" xmlns="http://www.w3.org/2000/svg" viewBox="0 0 13.48 14.69"><defs><style>.cls-1{fill:#431d08;}.cls-2{fill:[c];}.cls-3{fill:[a];}.cls-4{fill:#fff;}.cls-5{fill:#100d0f;}.cls-6{fill:[beak];}</style></defs><title>owl2</title><path class="cls-1" d="M34.61,22.14a0.91,0.91,0,0,1-.66-0.28,0.91,0.91,0,0,1-.65.28,0.26,0.26,0,1,1,0-.52,0.4,0.4,0,0,0,.4-0.4,0.26,0.26,0,0,1,.52,0,0.4,0.4,0,0,0,.4.4A0.26,0.26,0,1,1,34.61,22.14Z" transform="translate(-25.23 -7.45)"/><path class="cls-1" d="M33.95,21.48a0.26,0.26,0,0,1-.26-0.26V15a0.26,0.26,0,1,1,.52,0v6.27A0.26,0.26,0,0,1,33.95,21.48Z" transform="translate(-25.23 -7.45)"/><path class="cls-1" d="M30.66,22.14A0.91,0.91,0,0,1,30,21.86a0.9,0.9,0,0,1-.65.28,0.26,0.26,0,1,1,0-.52,0.4,0.4,0,0,0,.4-0.4,0.26,0.26,0,0,1,.52,0,0.4,0.4,0,0,0,.4.4A0.26,0.26,0,0,1,30.66,22.14Z" transform="translate(-25.23 -7.45)"/><path class="cls-1" d="M30,21.48a0.26,0.26,0,0,1-.26-0.26V15a0.26,0.26,0,1,1,.52,0v6.27A0.26,0.26,0,0,1,30,21.48Z" transform="translate(-25.23 -7.45)"/><path class="cls-2" d="M33,19.82H31s-2.26.87,0,1.06c-0.62.94-.23,2.07,1,0.4,1.2,1.67,1.59.54,1-.4C35.22,20.69,33,19.82,33,19.82Z" transform="translate(-25.23 -7.45)"/><path class="cls-2" d="M29,8.5a4.08,4.08,0,0,1-1.72-.21,7.67,7.67,0,0,1-1.38-.76c-0.5-.26-1,0.19-0.43.76,1.37,1.45,1.49,3.41,1.81,4.21S29,8.5,29,8.5Z" transform="translate(-25.23 -7.45)"/><path class="cls-2" d="M34.95,8.5a4.07,4.07,0,0,0,1.72-.21A7.58,7.58,0,0,0,38,7.52c0.5-.26,1,0.19.43,0.76C37.11,9.74,37,11.7,36.67,12.49S34.95,8.5,34.95,8.5Z" transform="translate(-25.23 -7.45)"/><ellipse class="cls-3" cx="6.74" cy="6.72" rx="5.2" ry="6.19"/><circle class="cls-2" cx="4" cy="3.45" r="2.74"/><circle class="cls-4" cx="4" cy="3.45" r="2.04"/><path class="cls-5" d="M30,11.42a0.25,0.25,0,0,1-.22-0.13,1,1,0,0,0-1.15-.37,0.25,0.25,0,0,1-.16-0.47,1.46,1.46,0,0,1,1.75.6,0.25,0.25,0,0,1-.1.34A0.25,0.25,0,0,1,30,11.42Z" transform="translate(-25.23 -7.45)"/><circle class="cls-2" cx="9.48" cy="3.45" r="2.74"/><circle class="cls-4" cx="9.48" cy="3.45" r="2.04"/><path class="cls-5" d="M34,11.42a0.25,0.25,0,0,0,.22-0.13,1,1,0,0,1,1.15-.37,0.25,0.25,0,0,0,.16-0.47,1.46,1.46,0,0,0-1.75.6A0.25,0.25,0,0,0,34,11.42Z" transform="translate(-25.23 -7.45)"/><rect class="cls-6" x="31.2" y="12.44" width="1.54" height="1.55" transform="translate(-25.22 19.01) rotate(-44.97)"/><path class="cls-2" d="M26.76,14.07s2,1,2.27,4.64S26.2,18,26.76,14.07Z" transform="translate(-25.23 -7.45)"/><path class="cls-2" d="M37.18,14.07s-2,1-2.27,4.64S37.75,18,37.18,14.07Z" transform="translate(-25.23 -7.45)"/></svg>
