<svg id="Layer_1" data-name="Layer 1" xmlns="http://www.w3.org/2000/svg" viewBox="0 0 15.5 15.63"><defs><style>.cls-1{fill:#431d08;}.cls-2{fill:[c];}.cls-3{fill:[a];}.cls-4{fill:[b];}.cls-5{fill:#fff;}.cls-6{fill:#000001;}.cls-7{fill:[beak];}</style></defs><title>owl3</title><path class="cls-1" d="M53.29,22.14a0.91,0.91,0,0,1-.66-0.28,0.9,0.9,0,0,1-.65.28,0.26,0.26,0,1,1,0-.52,0.4,0.4,0,0,0,.4-0.4,0.26,0.26,0,0,1,.52,0,0.4,0.4,0,0,0,.4.4A0.26,0.26,0,1,1,53.29,22.14Z" transform="translate(-42.91 -6.51)"/><path class="cls-1" d="M52.63,21.48a0.26,0.26,0,0,1-.26-0.26V15a0.26,0.26,0,1,1,.52,0v6.27A0.26,0.26,0,0,1,52.63,21.48Z" transform="translate(-42.91 -6.51)"/><path class="cls-1" d="M49.34,22.14a0.91,0.91,0,0,1-.66-0.28,0.91,0.91,0,0,1-.66.28,0.26,0.26,0,0,1,0-.52,0.4,0.4,0,0,0,.4-0.4,0.26,0.26,0,1,1,.52,0,0.4,0.4,0,0,0,.4.4A0.26,0.26,0,0,1,49.34,22.14Z" transform="translate(-42.91 -6.51)"/><path class="cls-1" d="M48.69,21.48a0.26,0.26,0,0,1-.26-0.26V15a0.26,0.26,0,1,1,.52,0v6.27A0.26,0.26,0,0,1,48.69,21.48Z" transform="translate(-42.91 -6.51)"/><path class="cls-2" d="M53.38,8.48a20.43,20.43,0,0,1,2.91-1.69c0.82-.34,1.44-0.61,1.23.69C56.56,13.38,53.68,9.18,53.38,8.48Z" transform="translate(-42.91 -6.51)"/><path class="cls-2" d="M47.94,8.48A20.42,20.42,0,0,0,45,6.79c-0.82-.34-1.44-0.61-1.23.69C44.76,13.38,47.64,9.18,47.94,8.48Z" transform="translate(-42.91 -6.51)"/><path class="cls-3" d="M57.81,15.48c0,4.53-3.2,5.19-7.15,5.19s-7.15-.67-7.15-5.19,3.2-8.2,7.15-8.2S57.81,11,57.81,15.48Z" transform="translate(-42.91 -6.51)"/><path class="cls-2" d="M43.22,14.5s3.67,0.1,2.44,3.17a1.75,1.75,0,0,1,0,2.3,1.9,1.9,0,0,1,.06,1.79S41.8,19.83,43.22,14.5Z" transform="translate(-42.91 -6.51)"/><path class="cls-2" d="M58.1,14.5s-3.67.1-2.44,3.17a1.75,1.75,0,0,0,0,2.3,1.9,1.9,0,0,0-.06,1.79S59.52,19.83,58.1,14.5Z" transform="translate(-42.91 -6.51)"/><circle class="cls-4" cx="4.53" cy="6.24" r="3.23"/><circle class="cls-5" cx="4.53" cy="6.24" r="2.36"/><circle class="cls-6" cx="4.53" cy="6.24" r="1.03"/><circle class="cls-5" cx="4.52" cy="5.47" r="0.26"/><circle class="cls-4" cx="10.97" cy="6.24" r="3.22"/><circle class="cls-5" cx="10.97" cy="6.24" r="2.36"/><circle class="cls-6" cx="10.97" cy="6.24" r="1.03"/><circle class="cls-5" cx="10.97" cy="5.47" r="0.26"/><rect class="cls-7" x="50.08" y="14.01" width="1.15" height="1.15" transform="translate(-38.37 33.61) rotate(-45.04)"/></svg>
