<svg id="Layer_1" data-name="Layer 1" xmlns="http://www.w3.org/2000/svg" viewBox="0 0 15.29 18.72"><defs><style>.cls-1{fill:[c];}.cls-2{fill:[a];}.cls-3{fill:[b];}.cls-4{fill:#fff;}.cls-5{fill:#100d0f;}.cls-6{fill:[beak];}</style></defs>
<title>owl4</title><path class="cls-1" d="M70.31,19.82H68.38s-2.26.87,0,1.06c-0.62.94-.23,2.07,1,0.4,1.2,1.67,1.59.54,1-.4C72.57,20.7,70.31,19.82,70.31,19.82Z" transform="translate(-61.7 -3.42)"/><ellipse class="cls-2" cx="7.64" cy="9.03" rx="7.33" ry="7.75"/><path class="cls-2" d="M66,5.41a3.38,3.38,0,0,1-2.8-1.86c-0.28-.41-0.33.23-0.08,1a4,4,0,0,0,.81,1.47,2.12,2.12,0,0,0,1.12.67,1.3,1.3,0,0,0,1.59-1.32H66Z" transform="translate(-61.7 -3.42)"/><path class="cls-2" d="M72.67,5.41a3.38,3.38,0,0,0,2.8-1.86c0.28-.41.33,0.23,0.08,1a4,4,0,0,1-.81,1.47,2.12,2.12,0,0,1-1.12.67A1.3,1.3,0,0,1,72,5.41h0.64Z" transform="translate(-61.7 -3.42)"/><path class="cls-3" d="M75.14,14.17a5.79,5.79,0,1,1-11.59,0c0-3.2,2.59-3.36,5.79-3.36S75.14,11,75.14,14.17Z" transform="translate(-61.7 -3.42)"/><circle class="cls-1" cx="4.91" cy="5.63" r="2.74"/><circle class="cls-4" cx="4.91" cy="5.63" r="2.04"/><path class="cls-5" d="M67.33,9.57a0.25,0.25,0,0,1-.22-0.13A1,1,0,0,0,66,9.08,0.25,0.25,0,0,1,65.8,8.6a1.45,1.45,0,0,1,1.75.6,0.25,0.25,0,0,1-.1.34A0.24,0.24,0,0,1,67.33,9.57Z" transform="translate(-61.7 -3.42)"/><circle class="cls-1" cx="10.38" cy="5.63" r="2.74"/><circle class="cls-4" cx="10.38" cy="5.63" r="2.04"/><path class="cls-5" d="M71.36,9.57a0.24,0.24,0,0,0,.22-0.13,1,1,0,0,1,1.15-.37,0.25,0.25,0,0,0,.16-0.47,1.45,1.45,0,0,0-1.75.6,0.25,0.25,0,0,0,.1.34A0.26,0.26,0,0,0,71.36,9.57Z" transform="translate(-61.7 -3.42)"/><rect class="cls-6" x="68.57" y="10.16" width="1.55" height="1.55" transform="translate(-49.14 48.79) rotate(-44.98)"/><path class="cls-1" d="M74,18.52a7.43,7.43,0,0,0,2.85-3.94c0.66-2.15-1.31-1.37-2-.35A7.11,7.11,0,0,0,74,18.52Z" transform="translate(-61.7 -3.42)"/><path class="cls-1" d="M64.69,18.52a7.42,7.42,0,0,1-2.85-3.94c-0.66-2.15,1.31-1.37,2-.35A7.1,7.1,0,0,1,64.69,18.52Z" transform="translate(-61.7 -3.42)"/><path class="cls-4" d="M66,14.07a0.22,0.22,0,0,1-.22.22H65.42a0.22,0.22,0,0,1-.22-0.22h0a0.22,0.22,0,0,1,.22-0.22h0.41a0.22,0.22,0,0,1,.22.22h0Z" transform="translate(-61.7 -3.42)"/><path class="cls-4" d="M67.91,14.07a0.22,0.22,0,0,1-.22.22H67.28a0.22,0.22,0,0,1-.22-0.22h0a0.22,0.22,0,0,1,.22-0.22h0.41a0.22,0.22,0,0,1,.22.22h0Z" transform="translate(-61.7 -3.42)"/><path class="cls-4" d="M69.77,14.07a0.22,0.22,0,0,1-.22.22H69.14a0.22,0.22,0,0,1-.22-0.22h0a0.22,0.22,0,0,1,.22-0.22h0.41a0.22,0.22,0,0,1,.22.22h0Z" transform="translate(-61.7 -3.42)"/><path class="cls-4" d="M71.63,14.07a0.22,0.22,0,0,1-.22.22H71a0.22,0.22,0,0,1-.22-0.22h0A0.22,0.22,0,0,1,71,13.85h0.41a0.22,0.22,0,0,1,.22.22h0Z" transform="translate(-61.7 -3.42)"/><path class="cls-4" d="M73.49,14.07a0.22,0.22,0,0,1-.22.22H72.86a0.22,0.22,0,0,1-.22-0.22h0a0.22,0.22,0,0,1,.22-0.22h0.41a0.22,0.22,0,0,1,.22.22h0Z" transform="translate(-61.7 -3.42)"/><path class="cls-4" d="M67,15.39a0.22,0.22,0,0,1-.22.22H66.35a0.22,0.22,0,0,1-.22-0.22h0a0.22,0.22,0,0,1,.22-0.22h0.41a0.22,0.22,0,0,1,.22.22h0Z" transform="translate(-61.7 -3.42)"/><path class="cls-4" d="M68.84,15.39a0.22,0.22,0,0,1-.22.22H68.21A0.22,0.22,0,0,1,68,15.39h0a0.22,0.22,0,0,1,.22-0.22h0.41a0.22,0.22,0,0,1,.22.22h0Z" transform="translate(-61.7 -3.42)"/><path class="cls-4" d="M70.7,15.39a0.22,0.22,0,0,1-.22.22H70.07a0.22,0.22,0,0,1-.22-0.22h0a0.22,0.22,0,0,1,.22-0.22h0.41a0.22,0.22,0,0,1,.22.22h0Z" transform="translate(-61.7 -3.42)"/><path class="cls-4" d="M72.56,15.39a0.22,0.22,0,0,1-.22.22H71.93a0.22,0.22,0,0,1-.22-0.22h0a0.22,0.22,0,0,1,.22-0.22h0.41a0.22,0.22,0,0,1,.22.22h0Z" transform="translate(-61.7 -3.42)"/><path class="cls-4" d="M67.91,16.71a0.22,0.22,0,0,1-.22.22H67.28a0.22,0.22,0,0,1-.22-0.22h0a0.22,0.22,0,0,1,.22-0.22h0.41a0.22,0.22,0,0,1,.22.22h0Z" transform="translate(-61.7 -3.42)"/><path class="cls-4" d="M69.77,16.71a0.22,0.22,0,0,1-.22.22H69.14a0.22,0.22,0,0,1-.22-0.22h0a0.22,0.22,0,0,1,.22-0.22h0.41a0.22,0.22,0,0,1,.22.22h0Z" transform="translate(-61.7 -3.42)"/><path class="cls-4" d="M71.63,16.71a0.22,0.22,0,0,1-.22.22H71a0.22,0.22,0,0,1-.22-0.22h0A0.22,0.22,0,0,1,71,16.49h0.41a0.22,0.22,0,0,1,.22.22h0Z" transform="translate(-61.7 -3.42)"/></svg>
