<svg id="Layer_1" data-name="Layer 1" xmlns="http://www.w3.org/2000/svg" viewBox="0 0 21.28 16.11"><defs><style>.cls-1{fill:#1f0f0a;}.cls-2{fill:[c];}.cls-3{fill:[a];}.cls-4{fill:#eeedea;}.cls-5{fill:[b];}.cls-6{fill:#fff;}.cls-7{fill:#100d0f;}.cls-8{fill:[beak];}</style></defs><title>owl5</title><path class="cls-1" d="M90.66,22.14A0.91,0.91,0,0,1,90,21.86a0.91,0.91,0,0,1-.66.28,0.26,0.26,0,0,1,0-.52,0.4,0.4,0,0,0,.4-0.4,0.26,0.26,0,0,1,.52,0,0.4,0.4,0,0,0,.4.4A0.26,0.26,0,0,1,90.66,22.14Z" transform="translate(-77.39 -6.03)"/><path class="cls-1" d="M90,21.48a0.26,0.26,0,0,1-.26-0.26V15a0.26,0.26,0,1,1,.52,0v6.27A0.26,0.26,0,0,1,90,21.48Z" transform="translate(-77.39 -6.03)"/><path class="cls-1" d="M86.71,22.14a0.91,0.91,0,0,1-.66-0.28,0.9,0.9,0,0,1-.65.28,0.26,0.26,0,1,1,0-.52,0.4,0.4,0,0,0,.4-0.4,0.26,0.26,0,0,1,.52,0,0.4,0.4,0,0,0,.4.4A0.26,0.26,0,0,1,86.71,22.14Z" transform="translate(-77.39 -6.03)"/><path class="cls-1" d="M86.06,21.48a0.26,0.26,0,0,1-.26-0.26V15a0.26,0.26,0,1,1,.52,0v6.27A0.26,0.26,0,0,1,86.06,21.48Z" transform="translate(-77.39 -6.03)"/><path class="cls-2" d="M84.18,16.95a24.65,24.65,0,0,0-5.73-5.23c-2.31-1.33-.26.91,0.7,1.83-0.84,0-2.69,1.72.35,2.54C79.2,16.34,78.78,19,84.18,16.95Z" transform="translate(-77.39 -6.03)"/><path class="cls-2" d="M91.88,16.95a24.62,24.62,0,0,1,5.73-5.23c2.31-1.33.26,0.91-.7,1.83,0.84,0,2.69,1.72-.36,2.54C96.86,16.34,97.28,19,91.88,16.95Z" transform="translate(-77.39 -6.03)"/><path class="cls-3" d="M95.18,15.3c0,4.53-3.2,5.2-7.15,5.2s-7.15-.67-7.15-5.2S84.08,7.11,88,7.11,95.18,10.78,95.18,15.3Z" transform="translate(-77.39 -6.03)"/><path class="cls-4" d="M91.6,17.85c0,2.26-1.6,2.6-3.57,2.6s-3.57-.33-3.57-2.6A3.61,3.61,0,1,1,91.6,17.85Z" transform="translate(-77.39 -6.03)"/><path class="cls-5" d="M93.26,10.82A3.14,3.14,0,0,1,90.12,14H85.94a3.14,3.14,0,0,1-3.14-3.14h0a3.14,3.14,0,0,1,3.14-3.14h4.19a3.14,3.14,0,0,1,3.14,3.14h0Z" transform="translate(-77.39 -6.03)"/><circle class="cls-6" cx="8.66" cy="4.78" r="2.27"/><circle class="cls-6" cx="12.62" cy="4.78" r="2.27"/><circle class="cls-7" cx="8.66" cy="4.78" r="0.9"/><circle class="cls-6" cx="8.66" cy="4.28" r="0.22"/><circle class="cls-7" cx="12.73" cy="4.78" r="0.9"/><circle class="cls-6" cx="12.73" cy="4.28" r="0.22"/><rect class="cls-8" x="87.25" y="12.17" width="1.56" height="1.56" transform="translate(-60.76 60.01) rotate(-45)"/><path class="cls-2" d="M85.66,10.22A3.43,3.43,0,0,0,88,9.61a4.21,4.21,0,0,0-1-1,10,10,0,0,0-5-1.52s-1-1-1-1C82.25,8.48,84.2,10.13,85.66,10.22Z" transform="translate(-77.39 -6.03)"/><path class="cls-2" d="M90.4,10.22a3.43,3.43,0,0,1-2.33-.62,4.21,4.21,0,0,1,1-1,10,10,0,0,1,5-1.52s1-1,1-1C93.8,8.48,91.86,10.13,90.4,10.22Z" transform="translate(-77.39 -6.03)"/></svg>
