<svg id="Layer_1" data-name="Layer 1" xmlns="http://www.w3.org/2000/svg" viewBox="0 0 14.37 15.03"><defs><style>.cls-1{fill:[a];}.cls-2{fill:[c];}.cls-3{fill:#fff;}.cls-4{fill:#000001;}.cls-5{fill:[beak];}.cls-6{fill:#1f0f0a;}.cls-7{fill:[b]}</style></defs><title>owl6</title><polygon class="cls-1" points="3.22 1.19 3.93 3.63 1.49 2.92 0.79 0.49 3.22 1.19"/><polygon class="cls-1" points="11.15 1.19 10.45 3.63 12.88 2.92 13.59 0.49 11.15 1.19"/><path class="cls-1" d="M20.44,40.6c0,4.52-3.2,5.19-7.15,5.19s-7.15-.67-7.15-5.19,3.2-8.19,7.15-8.19S20.44,36.08,20.44,40.6Z" transform="translate(-6.1 -32.41)"/><circle class="cls-2" cx="3.96" cy="3.82" r="3.22"/><circle class="cls-3" cx="3.96" cy="3.82" r="2.36"/><circle class="cls-4" cx="3.96" cy="3.82" r="1.03"/><circle class="cls-3" cx="3.96" cy="3.05" r="0.26"/><circle class="cls-2" cx="10.41" cy="3.82" r="3.22"/><circle class="cls-3" cx="10.41" cy="3.82" r="2.36"/><circle class="cls-4" cx="10.41" cy="3.82" r="1.03"/><circle class="cls-3" cx="10.41" cy="3.05" r="0.26"/><rect class="cls-5" x="12.73" y="37.49" width="1.15" height="1.15" transform="translate(-29.14 -11.81) rotate(-45.07)"/><path class="cls-2" d="M6.17,39.69s2,1,2.27,4.64S5.6,43.64,6.17,39.69Z" transform="translate(-6.1 -32.41)"/><path class="cls-2" d="M20.41,39.69s-2,1-2.27,4.64S21,43.64,20.41,39.69Z" transform="translate(-6.1 -32.41)"/><path class="cls-6" d="M15.91,47.44a0.91,0.91,0,0,1-.66-0.28,0.91,0.91,0,0,1-.66.28,0.26,0.26,0,1,1,0-.52,0.4,0.4,0,0,0,.4-0.4,0.26,0.26,0,0,1,.52,0,0.4,0.4,0,0,0,.4.4A0.26,0.26,0,0,1,15.91,47.44Z" transform="translate(-6.1 -32.41)"/><path class="cls-6" d="M15.26,46.78A0.26,0.26,0,0,1,15,46.52V40.25a0.26,0.26,0,1,1,.52,0v6.27A0.26,0.26,0,0,1,15.26,46.78Z" transform="translate(-6.1 -32.41)"/><path class="cls-6" d="M12,47.44a0.91,0.91,0,0,1-.66-0.28,0.9,0.9,0,0,1-.65.28,0.26,0.26,0,1,1,0-.52,0.4,0.4,0,0,0,.4-0.4,0.26,0.26,0,0,1,.52,0,0.4,0.4,0,0,0,.4.4A0.26,0.26,0,0,1,12,47.44Z" transform="translate(-6.1 -32.41)"/><path class="cls-6" d="M11.32,46.78a0.26,0.26,0,0,1-.26-0.26V40.25a0.26,0.26,0,1,1,.52,0v6.27A0.26,0.26,0,0,1,11.32,46.78Z" transform="translate(-6.1 -32.41)"/><path class="cls-7" d="M16.86,43.15c0,2.26-1.6,2.6-3.57,2.6s-3.57-.33-3.57-2.6A3.86,3.86,0,0,1,13.29,39,3.86,3.86,0,0,1,16.86,43.15Z" transform="translate(-6.1 -32.41)"/></svg>
