<svg id="Layer_1" data-name="Layer 1" xmlns="http://www.w3.org/2000/svg" viewBox="0 0 21.28 15.33"><defs><style>.cls-1{fill:#431d08;}.cls-2{fill:[b];}.cls-3{fill:#150e0d;}.cls-4{fill:[a];}.cls-5{fill:#fff;}.cls-6{fill:#000001;}.cls-7{fill:[beak];}</style></defs><title>owl7</title><path class="cls-1" d="M34.6,47.44a0.91,0.91,0,0,1-.66-0.28,0.91,0.91,0,0,1-.65.28,0.26,0.26,0,1,1,0-.52,0.4,0.4,0,0,0,.4-0.4,0.26,0.26,0,0,1,.52,0,0.4,0.4,0,0,0,.4.4A0.26,0.26,0,1,1,34.6,47.44Z" transform="translate(-21.33 -32.1)"/><path class="cls-1" d="M33.94,46.78a0.26,0.26,0,0,1-.26-0.26V40.25a0.26,0.26,0,1,1,.52,0v6.27A0.26,0.26,0,0,1,33.94,46.78Z" transform="translate(-21.33 -32.1)"/><path class="cls-1" d="M30.66,47.44A0.91,0.91,0,0,1,30,47.16a0.9,0.9,0,0,1-.65.28,0.26,0.26,0,1,1,0-.52,0.4,0.4,0,0,0,.4-0.4,0.26,0.26,0,0,1,.52,0,0.4,0.4,0,0,0,.4.4A0.26,0.26,0,0,1,30.66,47.44Z" transform="translate(-21.33 -32.1)"/><path class="cls-1" d="M30,46.78a0.26,0.26,0,0,1-.26-0.26V40.25a0.26,0.26,0,1,1,.52,0v6.27A0.26,0.26,0,0,1,30,46.78Z" transform="translate(-21.33 -32.1)"/><path class="cls-2" d="M28.12,42.42a24.65,24.65,0,0,0-5.73-5.23c-2.31-1.33-.26.91,0.7,1.83-0.84,0-2.69,1.72.36,2.54C23.15,41.81,22.72,44.5,28.12,42.42Z" transform="translate(-21.33 -32.1)"/><path class="cls-2" d="M35.83,42.42a24.65,24.65,0,0,1,5.73-5.23c2.31-1.33.26,0.91-.7,1.83,0.84,0,2.69,1.72-.35,2.54C40.8,41.81,41.22,44.5,35.83,42.42Z" transform="translate(-21.33 -32.1)"/><path class="cls-2" d="M37.37,36.93c1.45-2.26.18-5.89-.45-4.52a3.62,3.62,0,0,1-3.06,2.13,4.43,4.43,0,0,0-3.77,0A3.63,3.63,0,0,1,27,32.4c-0.63-1.37-1.9,2.26-.45,4.52v4.85c0,2.62,2.42,4.75,5.4,4.75s5.4-2.13,5.4-4.75V36.93Z" transform="translate(-21.33 -32.1)"/><ellipse class="cls-3" cx="26.57" cy="35.02" rx="0.3" ry="1.48" transform="translate(-25.82 -28.19) rotate(-7.76)"/><ellipse class="cls-3" cx="37.37" cy="35.02" rx="1.48" ry="0.3" transform="translate(-23.7 35.22) rotate(-82.24)"/><circle class="cls-4" cx="7.42" cy="6.61" r="3.22"/><circle class="cls-5" cx="7.42" cy="6.61" r="2.36"/><circle class="cls-6" cx="7.42" cy="6.61" r="1.03"/><circle class="cls-5" cx="7.42" cy="5.84" r="0.26"/><circle class="cls-4" cx="13.86" cy="6.61" r="3.22"/><circle class="cls-5" cx="13.86" cy="6.61" r="2.36"/><circle class="cls-6" cx="13.86" cy="6.61" r="1.03"/><circle class="cls-5" cx="13.86" cy="5.84" r="0.26"/><rect class="cls-7" x="31.42" y="39.97" width="1.15" height="1.15" transform="translate(-40.63 2.39) rotate(-45)"/><path class="cls-4" d="M32,41.94a15.1,15.1,0,0,0-5.26.89A5.29,5.29,0,0,0,32,46.53a5.29,5.29,0,0,0,5.26-3.7A15.09,15.09,0,0,0,32,41.94Z" transform="translate(-21.33 -32.1)"/><path class="cls-5" d="M29.76,43.07h0a0.92,0.92,0,0,1-.92.92h0a0.92,0.92,0,0,1-.92-0.92h1.83Z" transform="translate(-21.33 -32.1)"/><path class="cls-5" d="M31.85,43.07h0a0.92,0.92,0,0,1-.92.92h0A0.92,0.92,0,0,1,30,43.07h1.83Z" transform="translate(-21.33 -32.1)"/><path class="cls-5" d="M33.93,43.07h0A0.92,0.92,0,0,1,33,44h0a0.92,0.92,0,0,1-.91-0.92h1.83Z" transform="translate(-21.33 -32.1)"/><path class="cls-5" d="M36,43.07h0a0.92,0.92,0,0,1-.91.92h0a0.92,0.92,0,0,1-.92-0.92H36Z" transform="translate(-21.33 -32.1)"/><path class="cls-5" d="M30.8,44.29h0a0.91,0.91,0,0,1-.91.91h0A0.91,0.91,0,0,1,29,44.29H30.8Z" transform="translate(-21.33 -32.1)"/><path class="cls-5" d="M32.89,44.29h0a0.91,0.91,0,0,1-.92.91h0a0.91,0.91,0,0,1-.92-0.91h1.83Z" transform="translate(-21.33 -32.1)"/><path class="cls-5" d="M35,44.29h0a0.91,0.91,0,0,1-.91.91h0a0.91,0.91,0,0,1-.92-0.91H35Z" transform="translate(-21.33 -32.1)"/><path class="cls-5" d="M31.85,45.51h0a0.91,0.91,0,0,1-.91.92h0A0.92,0.92,0,0,1,30,45.51h1.83Z" transform="translate(-21.33 -32.1)"/><path class="cls-5" d="M33.93,45.51h0a0.91,0.91,0,0,1-.91.92h0a0.91,0.91,0,0,1-.92-0.92h1.83Z" transform="translate(-21.33 -32.1)"/></svg>
