<svg id="Layer_1" data-name="Layer 1" xmlns="http://www.w3.org/2000/svg" viewBox="0 0 19.28 17.54"><defs><style>.cls-1{fill:[c];}.cls-2{fill:[b];}.cls-3{fill:[a];}.cls-4{fill:#fff;}.cls-5{fill:#100d0f;}.cls-6{fill:[beak];}</style></defs><title>owl8</title><path class="cls-1" d="M51.63,45.12H49.69s-2.26.87,0,1.06c-0.62.94-.23,2.07,1,0.4,1.2,1.67,1.59.54,1-.4C53.88,46,51.63,45.12,51.63,45.12Z" transform="translate(-41.02 -29.89)"/><path class="cls-2" d="M47.81,38.9a24.64,24.64,0,0,0-5.73-5.23c-2.31-1.33-.26.91,0.7,1.83-0.84,0-2.69,1.72.36,2.54C42.83,38.29,42.41,41,47.81,38.9Z" transform="translate(-41.02 -29.89)"/><path class="cls-2" d="M53.51,38.9a24.65,24.65,0,0,1,5.73-5.23c2.31-1.33.26,0.91-.7,1.83,0.84,0,2.69,1.72-.35,2.54C58.49,38.29,58.91,41,53.51,38.9Z" transform="translate(-41.02 -29.89)"/><path class="cls-3" d="M54.92,39.61c0,3.46-.8,6.27-4.26,6.27s-4.27-2.8-4.27-6.27,0.81-6.27,4.27-6.27S54.92,36.15,54.92,39.61Z" transform="translate(-41.02 -29.89)"/><path class="cls-1" d="M55.89,34.68a3.14,3.14,0,0,1-3.14,3.14H48.57a3.14,3.14,0,0,1-3.14-3.14h0a3.14,3.14,0,0,1,3.14-3.14h4.18a3.14,3.14,0,0,1,3.14,3.14h0Z" transform="translate(-41.02 -29.89)"/><circle class="cls-4" cx="7.66" cy="4.78" r="2.27"/><circle class="cls-4" cx="11.62" cy="4.78" r="2.27"/><circle class="cls-5" cx="7.66" cy="4.78" r="0.9"/><circle class="cls-4" cx="7.66" cy="4.28" r="0.22"/><circle class="cls-5" cx="11.73" cy="4.78" r="0.9"/><circle class="cls-4" cx="11.73" cy="4.28" r="0.22"/><rect class="cls-6" x="49.88" y="36.04" width="1.56" height="1.56" transform="translate(-52.21 16.74) rotate(-45.02)"/><path class="cls-3" d="M48.29,34.09a3.42,3.42,0,0,0,2.33-.62,4.21,4.21,0,0,0-1-1,10.05,10.05,0,0,0-5-1.52s-1-1-1-1C44.88,32.35,46.83,34,48.29,34.09Z" transform="translate(-41.02 -29.89)"/><path class="cls-3" d="M53,34.09a3.42,3.42,0,0,1-2.33-.62,4.22,4.22,0,0,1,1-1,10,10,0,0,1,5-1.52s1-1,1-1C56.43,32.35,54.49,34,53,34.09Z" transform="translate(-41.02 -29.89)"/><path class="cls-4" d="M47.36,39.42a0.22,0.22,0,0,1-.22.22H46.73a0.22,0.22,0,0,1-.22-0.22h0a0.22,0.22,0,0,1,.22-0.22h0.41a0.22,0.22,0,0,1,.22.22h0Z" transform="translate(-41.02 -29.89)"/><path class="cls-4" d="M49.22,39.42a0.22,0.22,0,0,1-.22.22H48.59a0.22,0.22,0,0,1-.22-0.22h0a0.22,0.22,0,0,1,.22-0.22H49a0.22,0.22,0,0,1,.22.22h0Z" transform="translate(-41.02 -29.89)"/><path class="cls-4" d="M51.08,39.42a0.22,0.22,0,0,1-.22.22H50.46a0.22,0.22,0,0,1-.22-0.22h0a0.22,0.22,0,0,1,.22-0.22h0.41a0.22,0.22,0,0,1,.22.22h0Z" transform="translate(-41.02 -29.89)"/><path class="cls-4" d="M52.94,39.42a0.22,0.22,0,0,1-.22.22H52.32a0.22,0.22,0,0,1-.22-0.22h0a0.22,0.22,0,0,1,.22-0.22h0.41a0.22,0.22,0,0,1,.22.22h0Z" transform="translate(-41.02 -29.89)"/><path class="cls-4" d="M54.81,39.42a0.22,0.22,0,0,1-.22.22H54.18A0.22,0.22,0,0,1,54,39.42h0a0.22,0.22,0,0,1,.22-0.22h0.41a0.22,0.22,0,0,1,.22.22h0Z" transform="translate(-41.02 -29.89)"/><path class="cls-4" d="M48.29,40.74a0.22,0.22,0,0,1-.22.22H47.66a0.22,0.22,0,0,1-.22-0.22h0a0.22,0.22,0,0,1,.22-0.22h0.41a0.22,0.22,0,0,1,.22.22h0Z" transform="translate(-41.02 -29.89)"/><path class="cls-4" d="M50.15,40.74a0.22,0.22,0,0,1-.22.22H49.52a0.22,0.22,0,0,1-.22-0.22h0a0.22,0.22,0,0,1,.22-0.22h0.41a0.22,0.22,0,0,1,.22.22h0Z" transform="translate(-41.02 -29.89)"/><path class="cls-4" d="M52,40.74a0.22,0.22,0,0,1-.22.22H51.39a0.22,0.22,0,0,1-.22-0.22h0a0.22,0.22,0,0,1,.22-0.22h0.41a0.22,0.22,0,0,1,.22.22h0Z" transform="translate(-41.02 -29.89)"/><path class="cls-4" d="M53.88,40.74a0.22,0.22,0,0,1-.22.22H53.25A0.22,0.22,0,0,1,53,40.74h0a0.22,0.22,0,0,1,.22-0.22h0.41a0.22,0.22,0,0,1,.22.22h0Z" transform="translate(-41.02 -29.89)"/><path class="cls-4" d="M49.22,42.06a0.22,0.22,0,0,1-.22.22H48.59a0.22,0.22,0,0,1-.22-0.22h0a0.22,0.22,0,0,1,.22-0.22H49a0.22,0.22,0,0,1,.22.22h0Z" transform="translate(-41.02 -29.89)"/><path class="cls-4" d="M51.08,42.06a0.22,0.22,0,0,1-.22.22H50.46a0.22,0.22,0,0,1-.22-0.22h0a0.22,0.22,0,0,1,.22-0.22h0.41a0.22,0.22,0,0,1,.22.22h0Z" transform="translate(-41.02 -29.89)"/><path class="cls-4" d="M52.94,42.06a0.22,0.22,0,0,1-.22.22H52.32a0.22,0.22,0,0,1-.22-0.22h0a0.22,0.22,0,0,1,.22-0.22h0.41a0.22,0.22,0,0,1,.22.22h0Z" transform="translate(-41.02 -29.89)"/></svg>
