<svg id="Layer_1" data-name="Layer 1" xmlns="http://www.w3.org/2000/svg" viewBox="0 0 13.01 18.77"><defs><style>.cls-1{fill:#431d08;}.cls-2{fill:[b];}.cls-3{fill:[a];}.cls-4{fill:[c];}.cls-5{fill:#fff;}.cls-6{fill:#000001;}.cls-7{fill:[beak];}</style></defs><title>owl9</title><path class="cls-1" d="M72,47.41a0.91,0.91,0,0,1-.66-0.28,0.91,0.91,0,0,1-.66.28,0.26,0.26,0,0,1,0-.52,0.4,0.4,0,0,0,.4-0.4,0.26,0.26,0,0,1,.52,0,0.4,0.4,0,0,0,.4.4A0.26,0.26,0,0,1,72,47.41Z" transform="translate(-62.84 -28.67)"/><path class="cls-1" d="M71.31,46.76a0.26,0.26,0,0,1-.26-0.26V40.23a0.26,0.26,0,1,1,.52,0V46.5A0.26,0.26,0,0,1,71.31,46.76Z" transform="translate(-62.84 -28.67)"/><path class="cls-1" d="M68,47.41a0.91,0.91,0,0,1-.66-0.28,0.9,0.9,0,0,1-.65.28,0.26,0.26,0,1,1,0-.52,0.4,0.4,0,0,0,.4-0.4,0.26,0.26,0,0,1,.52,0,0.4,0.4,0,0,0,.4.4A0.26,0.26,0,0,1,68,47.41Z" transform="translate(-62.84 -28.67)"/><path class="cls-1" d="M67.37,46.76a0.26,0.26,0,0,1-.26-0.26V40.23a0.26,0.26,0,1,1,.52,0V46.5A0.26,0.26,0,0,1,67.37,46.76Z" transform="translate(-62.84 -28.67)"/><ellipse class="cls-2" cx="6.5" cy="16.62" rx="0.65" ry="2.16"/><ellipse class="cls-2" cx="69.34" cy="45.28" rx="0.65" ry="2.16" transform="translate(-74.53 33.72) rotate(-45.06)"/><ellipse class="cls-2" cx="69.34" cy="45.28" rx="2.16" ry="0.65" transform="translate(-74.55 33.63) rotate(-45)"/><path class="cls-3" d="M73.61,39c0,3.46-.8,6.27-4.27,6.27S65.08,42.48,65.08,39s0.8-6.27,4.27-6.27S73.61,35.56,73.61,39Z" transform="translate(-62.84 -28.67)"/><path class="cls-4" d="M75.85,28.67s-4.3,3.09-5.7,5.18a2.25,2.25,0,0,0,2.34.42C74.5,33.47,75.46,30.13,75.85,28.67Z" transform="translate(-62.84 -28.67)"/><path class="cls-4" d="M62.84,28.67s4.3,3.09,5.7,5.18a2.24,2.24,0,0,1-2.34.42C64.19,33.47,63.23,30.13,62.84,28.67Z" transform="translate(-62.84 -28.67)"/><circle class="cls-4" cx="3.28" cy="7.24" r="3.22"/><circle class="cls-5" cx="3.28" cy="7.24" r="2.36"/><circle class="cls-6" cx="3.28" cy="7.24" r="1.03"/><circle class="cls-5" cx="3.28" cy="6.47" r="0.26"/><circle class="cls-4" cx="9.73" cy="7.24" r="3.22"/><circle class="cls-5" cx="9.73" cy="7.24" r="2.36"/><circle class="cls-6" cx="9.73" cy="7.24" r="1.03"/><circle class="cls-5" cx="9.73" cy="6.47" r="0.26"/><rect class="cls-7" x="68.77" y="37.16" width="1.15" height="1.15" transform="translate(-69.21 31.42) rotate(-45)"/><path class="cls-2" d="M71.64,44.72A9.27,9.27,0,0,0,75.2,39.8c0.83-2.68-1.63-1.72-2.47-.44A8.88,8.88,0,0,0,71.64,44.72Z" transform="translate(-62.84 -28.67)"/><path class="cls-2" d="M67.05,44.72a9.27,9.27,0,0,1-3.56-4.92c-0.83-2.68,1.64-1.72,2.47-.44A8.87,8.87,0,0,1,67.05,44.72Z" transform="translate(-62.84 -28.67)"/></svg>
